<?xml version="1.0" encoding="UTF-8"?>
<svg width="144px" height="145px" viewBox="0 0 144 145" version="1.1" xmlns="http://www.w3.org/2000/svg" xmlns:xlink="http://www.w3.org/1999/xlink">
    <!-- Generator: Sketch 55.1 (78136) - https://sketchapp.com -->
    <title>UI profilo DE 3</title>
    <desc>Created with Sketch.</desc>
    <g id="UI-profilo-DE-3" stroke="none" stroke-width="1" fill="none" fill-rule="evenodd">
        <g id="mail" transform="translate(4.000000, 1.101449)" fill="#3F556D" fill-rule="nonzero">
            <path d="M131.834003,55.1967995 L107.299828,34.4522952 L107.299828,30.5830254 C107.300833,29.9858229 107.062608,29.4147168 106.639431,28.9941658 L79.1611142,1.61117899 C79.1540782,1.60515665 79.1470419,1.60114184 79.141011,1.59511976 C78.7178345,1.15047989 78.1288053,0.898550725 77.5156519,0.898550725 C77.4302125,0.898550725 77.3457783,0.90356922 77.2623492,0.913606261 L77.2231475,0.909591455 C77.14776,0.902565531 77.0723722,0.898550725 76.9969844,0.898550725 L38.1381391,0.898550725 C31.2718266,0.905576649 25.7092188,6.46206873 25.7001723,13.3173505 L25.7001723,34.4663469 L1.29867892,55.1315589 C0.506605399,55.4999175 0,56.291838 0,57.1640546 L0,126.821949 C0.0100515658,135.144643 6.76378512,141.888514 15.0986501,141.898551 L117.90135,141.898551 C126.236215,141.888514 132.991959,135.144643 133,126.821949 L133,57.1640546 C133,56.3450341 132.553705,55.5902505 131.834003,55.1967995 Z M127.272544,57.2242769 L107.299828,74.1396598 L107.299828,40.3369974 L127.272544,57.2242769 Z M79.7642158,8.55579013 L99.672602,28.3939521 L87.7030442,28.3939521 C83.3205055,28.3889336 79.7692419,24.842856 79.7642158,20.4657134 L79.7642158,8.55579013 Z M38.1381391,5.38911153 L75.2670879,5.38911153 L75.2670879,20.466717 C75.2741241,27.321999 80.8377371,32.8784911 87.7030442,32.8855168 L102.801694,32.8855168 L102.801694,77.9487075 L73.3753591,102.870618 C69.4280587,106.232014 63.6181793,106.235026 59.6678632,102.87664 L30.1983056,77.9607516 L30.1983056,13.3173505 C30.2033314,8.94121154 33.7556004,5.39413023 38.1381391,5.38911153 Z M25.7001723,40.3540605 L25.7001723,74.1577263 L5.72745536,57.2694434 L25.7001723,40.3540605 Z M15.0986501,137.407991 C12.7787191,137.408994 10.5221137,136.647184 8.6796382,135.238991 L39.4237507,103.838186 C40.280155,102.948907 40.2570361,101.538706 39.3755025,100.676526 C38.4929639,99.8153503 37.0786904,99.8253872 36.2092189,100.698608 L5.75057432,131.806331 C4.92633538,130.273679 4.4971262,128.561364 4.4971262,126.821949 L4.4971262,62.1143111 L26.517375,80.7339792 L26.5193855,80.7359867 L56.7609132,106.305285 C62.3878519,111.088927 70.6614014,111.085915 76.2833143,106.296251 L128.502879,62.0731591 L128.502879,126.821949 C128.504882,128.567386 128.07266,130.286727 127.242389,131.824398 L96.6028143,100.693589 C95.7323377,99.8103318 94.3080127,99.7982874 93.4214531,100.667493 C92.536904,101.536699 92.5238369,102.95794 93.3953188,103.843205 L124.3083,135.24702 C122.467835,136.651199 120.216255,137.408994 117.90135,137.407991 L15.0986501,137.407991 Z" id="Shape"></path>
            <path d="M60.7081076,69.0732766 C61.4969285,70.0455632 62.878615,70.1770957 63.8214011,69.3700135 L78.1641453,57.0880555 C78.7890034,56.5587696 79.0969335,55.7180152 78.9729616,54.8846267 C78.8459904,54.050186 78.3061132,53.3514865 77.5562832,53.051593 C76.8054536,52.7516994 75.9596457,52.8990153 75.3407861,53.4367193 L62.6916574,64.2676135 L57.9507336,58.4244233 C57.4338508,57.7751801 56.6260341,57.4689729 55.8352136,57.620498 C55.045393,57.7730754 54.3925412,58.3591835 54.1266015,59.1578475 C53.859662,59.9565113 54.0216254,60.8435651 54.5485058,61.4812337 L60.7081076,69.0732766 Z" id="Path"></path>
            <path d="M66.5004433,86.8985507 C77.95736,86.8985507 87.8842325,78.9562812 90.3997968,67.7785669 C92.9153608,56.599857 87.3476716,45.1712714 76.9947361,40.2623556 C66.6437916,35.354435 54.2710379,38.2752949 47.2091415,47.2967096 C41.431407,54.6755142 40.370231,64.7043969 44.4755682,73.1284988 C48.5789145,81.5545919 57.1300409,86.8995464 66.5004433,86.8985507 Z M50.7152028,50.0453441 C56.7497698,42.3320446 67.4750127,40.1070542 76.0788995,44.7850093 C84.6827862,49.4619687 88.6487569,59.6720361 85.4572653,68.9313806 C82.265774,78.190725 72.8515708,83.7885419 63.1934766,82.1718151 C53.5343868,80.5540929 46.4575581,72.1927087 46.4565311,62.3987693 C46.4485989,57.9199185 47.9477835,53.5684944 50.7152028,50.0453441 Z" id="Shape"></path>
        </g>
    </g>
</svg>