<?xml version="1.0" encoding="UTF-8"?>
<svg width="127px" height="102px" viewBox="0 0 127 102" version="1.1" xmlns="http://www.w3.org/2000/svg" xmlns:xlink="http://www.w3.org/1999/xlink">
    <!-- Generator: Sketch 55.1 (78136) - https://sketchapp.com -->
    <title>UI onboarding enti 3</title>
    <desc>Created with Sketch.</desc>
    <g id="UI-onboarding-enti-3" stroke="none" stroke-width="1" fill="none" fill-rule="evenodd" fill-opacity="0.6">
        <g id="start" transform="translate(4.000000, 3.000000)" fill="#3F556D" fill-rule="nonzero">
            <path d="M48.2842577,13.7249535 C44.5125121,13.5646002 40.6941699,13.3224981 36.9356032,13.006145 C35.9504826,12.9239126 35.086796,13.6765814 35.0060754,14.6890081 C34.9253548,15.7011929 35.6584294,16.5890616 36.64355,16.6720197 C37.9920308,16.7854521 39.3489838,16.8860659 40.7078194,16.9801495 L40.7078194,31.1608952 C40.7080547,32.1764661 41.5093771,33 42.497557,33 C43.4857369,33 44.2870593,32.1764661 44.2870593,31.1608952 L44.2870593,17.2058051 C45.5727052,17.2783631 46.8574097,17.3456003 48.1367014,17.4000188 C48.1616471,17.4009862 48.1868282,17.40147 48.2117739,17.40147 C49.16583,17.40147 49.9584449,16.6272756 49.9984522,15.6383093 C50.0391655,14.6239477 49.2717316,13.7670371 48.2842577,13.7249535 Z" id="Path"></path>
            <path d="M97.9835903,13.5683752 C97.8505078,12.5771562 96.9460662,11.881731 95.9647011,12.0167673 C92.2117286,12.5297625 88.3966981,12.9725006 84.6255565,13.331883 C83.6392362,13.4259559 82.9150694,14.3095269 83.0080383,15.3050328 C83.0958161,16.2429042 83.8773216,16.9457123 84.7921456,16.9457123 C84.8485404,16.9457123 84.9058792,16.9430925 84.9632179,16.9376149 C86.2088602,16.8187734 87.4594578,16.6880239 88.7105273,16.5515586 L88.7105273,30.1887985 C88.7102913,31.1890676 89.5135053,32 90.5045449,32 C91.4955845,32 92.2987985,31.1890676 92.2987985,30.1890367 L92.2987985,16.1376378 C93.685546,15.9687828 95.0706418,15.7937357 96.4460632,15.6055899 C97.4281362,15.4715062 98.1164368,14.559356 97.9835903,13.5683752 Z" id="Path"></path>
            <path d="M80,20.2798651 L80,19.7297792 C80,18.1274188 79.3977839,16.6499335 78.3042739,15.5690672 C77.1995075,14.4769597 75.7350062,13.9202757 74.170839,14.0092278 C72.689453,14.0910931 71.1907135,14.1612285 69.7170663,14.2186564 C68.7586328,14.2555569 68,15.0761648 68,16.0756545 L68,24.8511255 L68,32.14178 C68,33.1679065 68.7982646,34 69.7831975,34 C70.7681304,34 71.566395,33.1679065 71.566395,32.14178 L71.566395,26.6436089 C72.8726036,26.6555833 74.0763323,27.1501963 74.98036,28.0538914 C75.9172187,28.9900883 76.4333705,30.2794056 76.4333705,31.6835787 C76.4333705,32.7097052 77.2316351,33.5417987 78.216568,33.5417987 C79.2015009,33.5417987 79.9997655,32.7097052 79.9997655,31.6835787 C79.9997655,29.2571891 79.0936272,27.0155462 77.4487894,25.3716422 C77.4462098,25.3689541 77.4431612,25.3665103 77.4403471,25.3638222 C78.9801255,24.2228399 80,22.3460475 80,20.2798651 Z M76.433605,20.2801095 C76.433605,21.57016 75.3977839,22.7170072 74.1710735,22.7844545 L74.170839,22.7844545 C73.3087882,22.8321074 72.4378261,22.8760947 71.566395,22.9156833 L71.566395,17.860318 C72.4971566,17.81853 73.4319048,17.7716102 74.3596178,17.7202917 C74.9294718,17.6875456 75.4622736,17.8820673 75.8501495,18.2657345 C76.2263001,18.6376717 76.433605,19.1576997 76.433605,19.7300236 L76.433605,20.2801095 Z" id="Shape"></path>
            <path d="M59.0094409,15.0000044 C57.3872767,14.9981304 55.8772084,15.5982633 54.7416695,16.707664 C53.6185592,17.8050901 53,19.2694989 53,20.8313472 L53,32.1688345 C53,33.1547336 53.8138307,33.9542065 54.8174358,33.9542065 C55.8210409,33.9542065 56.6348716,33.1547336 56.6348716,32.1688345 L56.6348716,26.8380765 C57.9539706,26.855686 59.2761766,26.8678953 60.5967096,26.8678953 C60.8536459,26.8678953 61.1084311,26.8653126 61.3651284,26.8646082 L61.3651284,32.2146193 C61.3651284,33.2005184 62.1787201,33.9999912 63.1825642,33.9999912 C64.1864083,33.9999912 65,33.2005184 65,32.2146193 L65,20.8771319 C64.999761,17.6548221 62.312805,15.0185575 59.0094409,15.0000044 Z M61.3651284,23.2955079 C59.7907662,23.2994994 58.2099508,23.2910468 56.6348716,23.2696806 L56.6348716,20.831582 C56.6348716,20.226988 56.8729261,19.6616045 57.3050571,19.2392105 C57.7496166,18.804842 58.3440357,18.5763877 58.989364,18.5707526 C60.2991416,18.5780312 61.3648894,19.6125326 61.3648894,20.8768972 L61.3648894,23.2955079 L61.3651284,23.2955079 Z" id="Shape"></path>
            <path d="M26.4583458,19.7679382 L25.9727703,19.7112483 C24.7346009,19.5649744 23.6485336,18.3667883 23.6485336,17.146906 C23.6482936,16.6408963 23.8270257,16.2198048 24.1652972,15.9284235 C24.5112457,15.63051 24.9968212,15.5007998 25.5325376,15.5642552 C27.0058178,15.7382908 28.5028489,15.9039279 29.9830864,16.0565007 C30.9856654,16.1593823 31.8831644,15.4536749 31.9892041,14.4792155 C32.0952438,13.5049894 31.3690398,12.6315453 30.3671805,12.5284304 C28.9058958,12.3779572 27.4273376,12.2146531 25.9725304,12.0424838 C24.3845739,11.8549173 22.884184,12.2925725 21.7458166,13.2733308 C20.6199244,14.2435909 20,15.6190787 20,17.1471393 C20,20.1941621 22.4307563,22.8674516 25.5334973,23.2334863 L26.023631,23.290876 C27.2853116,23.4383164 28.3512265,24.5854116 28.3512265,25.7957289 C28.3512265,26.3103704 28.1573802,26.7613232 27.805194,27.0648357 C27.4566065,27.3655487 26.9784682,27.4978251 26.4583458,27.436936 C25.0013795,27.2670996 23.5245007,27.0837324 22.0692137,26.8921999 C21.0699934,26.7608567 20.1518623,27.4413685 20.0167936,28.4120953 C19.881485,29.3830553 20.5812991,30.2765625 21.5797997,30.4079057 C23.0535596,30.6017711 24.5489114,30.7874713 26.0238709,30.9594072 C26.2568224,30.9867024 26.4878546,31 26.7164877,31 C28.029029,31 29.2556828,30.5562792 30.2265939,29.718762 C31.3534457,28.7466355 32,27.3165575 32,25.7954956 C32,22.7785675 29.565885,20.1309401 26.4583458,19.7679382 Z" id="Path"></path>
            <path d="M118.391284,0.434653526 C118.0043,0.0973091368 117.490646,-0.0551378432 116.983964,0.0179339864 C84.3494813,4.68309172 51.1732211,5.35661322 18.3774369,2.01888814 C17.4068394,1.91920229 16.5394376,2.63077717 16.4408903,3.6061577 C16.342343,4.58153822 17.0500704,5.45233031 18.0211328,5.55131579 C50.4269115,8.84935329 83.1978264,8.26501211 115.465778,3.81603493 L115.465778,37.9548202 C78.3192723,43.1226094 40.6814243,43.1226094 3.53468566,37.9548202 L3.53468566,3.81603493 C6.25519432,4.19096579 8.99755072,4.54091682 11.7127136,4.86005161 C12.6844733,4.97537904 13.5602423,4.27687772 13.6731998,3.30313139 C13.7866221,2.32938506 13.0926077,1.44762052 12.1231723,1.33392729 C8.76489551,0.939619556 5.3643178,0.496986365 2.01626763,0.0181674428 C1.50819143,-0.0544374742 0.995699196,0.0977760495 0.608947687,0.434886982 C0.222196179,0.771764459 0,1.26108891 0,1.7753932 L0,39.4982 C0,40.3820656 0.647297446,41.1312269 1.51818561,41.2556592 C2.81673169,41.4412569 4.11597504,41.6193841 5.41568323,41.7923753 L5.41568323,94.2247981 C5.41568323,95.2050812 6.2070828,96 7.18302606,96 L14.2570458,96 C15.2329891,96 16.0243887,95.2050812 16.0243887,94.2247981 L16.0243887,43.066113 C30.4782966,44.6090258 44.9891481,45.3808324 59.5,45.3808324 C74.0108512,45.3808324 88.5212378,44.6092593 102.974681,43.066113 L102.974681,58.8456594 C102.974681,59.8259425 103.765848,60.6208613 104.742024,60.6208613 C105.718199,60.6208613 106.509367,59.8259425 106.509367,58.8456594 L106.509367,42.6729725 C107.689609,42.536634 108.869387,42.394926 110.048933,42.248082 L110.048933,92.4495962 L106.509367,92.4495962 L106.509367,64.7630769 C106.509367,63.7827937 105.718199,62.987875 104.742024,62.987875 C103.765848,62.987875 102.974681,63.7827937 102.974681,64.7630769 L102.974681,94.2247981 C102.974681,95.2050812 103.765848,96 104.742024,96 L111.816276,96 C112.792452,96 113.583619,95.2050812 113.583619,94.2247981 L113.583619,41.7928422 C114.883559,41.619851 116.183035,41.4414904 117.481814,41.2558926 C118.352702,41.1314604 119,40.3822991 119,39.4984334 L119,1.7753932 C119,1.26108891 118.778268,0.771764459 118.391284,0.434653526 Z M12.4899354,92.4495962 L8.95060131,92.4495962 L8.95060131,42.2478485 C10.1299145,42.3946926 11.3096925,42.5364006 12.4899354,42.6727391 L12.4899354,92.4495962 Z" id="Shape"></path>
        </g>
    </g>
</svg>