<?xml version="1.0" encoding="UTF-8"?>
<svg width="144px" height="148px" viewBox="0 0 144 148" version="1.1" xmlns="http://www.w3.org/2000/svg" xmlns:xlink="http://www.w3.org/1999/xlink">
    <!-- Generator: Sketch 55.1 (78136) - https://sketchapp.com -->
    <title>UI onboarding enti 7 (1)</title>
    <desc>Created with Sketch.</desc>
    <g id="UI-onboarding-enti-7-(1)" stroke="none" stroke-width="1" fill="none" fill-rule="evenodd">
        <g id="pencil-case" transform="translate(19.436293, 2.000000)" fill="#FFFFFF" fill-rule="nonzero">
            <path d="M19.5637066,79 C17.9077066,79 16.5637066,80.344 16.5637066,82 C16.5637066,83.656 17.9077066,85 19.5637066,85 C21.2197066,85 22.5637066,83.656 22.5637066,82 C22.5637066,80.344 21.2197066,79 19.5637066,79 Z" id="Path"></path>
            <path d="M19.5637066,92 C17.9068066,92 16.5637066,93.2572397 16.5637066,94.8082192 L16.5637066,130.191781 C16.5637066,131.74276 17.9068066,133 19.5637066,133 C21.2206066,133 22.5637066,131.74276 22.5637066,130.191781 L22.5637066,94.8082192 C22.5637066,93.2572397 21.2203066,92 19.5637066,92 Z" id="Path"></path>
            <path d="M99.0726527,2.11393583 C98.8399011,1.20971747 98.1715876,0.479311532 97.2891652,0.164592917 C96.4064603,-0.149844448 95.42461,-0.00837575851 94.6684497,0.542874005 C91.8457714,2.60021687 77.6484874,13.1828061 75.3359418,19.5058659 C73.9611819,23.272083 74.2735889,27.3831125 76.1192188,30.8655485 C72.6561911,35.8116089 69.0691609,42.6409185 65.9123258,49.3135718 L65.9123258,2.81256053 C65.9123258,1.25921745 64.647445,0 63.0876702,0 L40.4904254,0 C38.9303681,0 37.6657698,1.25921745 37.6657698,2.81256053 L37.6657698,57.9375369 L37.1587441,57.9375369 L32.3342323,39.2487637 C32.3319726,39.2394824 32.3294304,39.2302012 32.3268882,39.2209199 L27.9401981,22.9224894 C27.9399156,22.9219269 27.9399156,22.9213644 27.9396331,22.9208019 C27.9142112,22.8271457 27.8834225,22.7348957 27.8483967,22.644052 C27.8376631,22.6162083 27.8246696,22.5894896 27.8130886,22.5619271 C27.7865368,22.4986458 27.7588552,22.4362084 27.7275015,22.3748959 C27.7122483,22.3450834 27.6955829,22.3163959 27.6791999,22.2871459 C27.6472813,22.2294897 27.6136679,22.1726772 27.5775123,22.117271 C27.559152,22.0894273 27.5402268,22.062146 27.5210192,22.0348648 C27.4823214,21.9800211 27.4416463,21.9268648 27.398994,21.8745524 C27.3871305,21.8602086 27.3775267,21.8444586 27.3653806,21.8303961 L10.6038743,2.16540456 C9.90222984,1.34218616 8.78931553,0.991748813 7.73995597,1.26315495 C6.69059642,1.53456108 5.88980655,2.38027947 5.67936971,3.43946651 L0.614762214,28.9263306 C0.611090161,28.9451743 0.610242765,28.9642993 0.606853178,28.9828618 C0.593859762,29.056268 0.583126071,29.1296742 0.576064432,29.2033617 C0.572957311,29.2345805 0.570980052,29.2657992 0.569002793,29.2970179 C0.56476581,29.3673304 0.563706564,29.4370804 0.563706564,29.5071116 C0.563706564,29.5397366 0.563706564,29.5723616 0.566178137,29.6049865 C0.569567724,29.6767053 0.576629363,29.7478615 0.585668261,29.8190177 C0.589340313,29.8482677 0.591600038,29.8772364 0.596119487,29.9062052 C0.611655093,30.0054864 0.631427682,30.1036426 0.657414513,30.2006738 L5.03902029,46.4827918 L7.97835691,58.0607243 C6.26379096,58.351818 4.68339615,59.1590051 3.42783673,60.4091608 C1.8271044,62.0032852 0.945246919,64.1219405 0.945246919,66.374752 C0.945246919,70.0411255 3.30694147,73.1674991 6.59455813,74.3284986 L6.59455813,129.937506 C6.59455813,137.691565 12.9302606,144 20.7178361,144 L77.2109482,144 C84.9985237,144 91.3342262,137.691565 91.3342262,129.937506 L91.3342262,74.3332799 C92.5115427,73.9195613 93.5914085,73.2459678 94.5009476,72.3406245 C96.1019624,70.7465002 96.9835374,68.6278448 96.9835374,66.3750333 C96.9835374,62.26541 94.0165192,58.8344428 90.1038063,58.0894118 C91.9463291,50.635165 93.2451057,43.2273245 93.7244498,37.4150144 C97.495365,35.9629213 100.469727,32.9819538 101.880643,29.123768 C104.197708,22.7883332 99.948296,5.51284062 99.0726527,2.11393583 Z M79.8777056,35.3686403 C81.0457007,36.2835462 82.3577532,37.0145146 83.77799,37.5292019 C85.1355195,38.0211079 86.546435,38.3001078 87.9652595,38.3647953 C87.398916,43.9723554 86.1012693,50.9538211 84.3183466,57.9375369 L68.1714854,57.9375369 C72.4850169,48.2051661 76.4691937,40.5259194 79.8777056,35.3686403 Z M43.315081,5.62505933 L60.2630146,5.62505933 L60.2630146,12.0938066 L54.6137034,12.0938066 C53.0539286,12.0938066 51.7890478,13.3529623 51.7890478,14.9063053 C51.7890478,16.4596484 53.0539286,17.7188041 54.6137034,17.7188041 L60.2630146,17.7188041 L60.2630146,23.3438017 L54.6137034,23.3438017 C53.0539286,23.3438017 51.7890478,24.6029574 51.7890478,26.1563005 C51.7890478,27.7096436 53.0539286,28.9687993 54.6137034,28.9687993 L60.2630146,28.9687993 L60.2630146,34.5937969 L54.6137034,34.5937969 C53.0539286,34.5937969 51.7890478,35.8529526 51.7890478,37.4062957 C51.7890478,38.9596388 53.0539286,40.2187945 54.6137034,40.2187945 L60.2630146,40.2187945 L60.2630146,45.8437921 L54.6137034,45.8437921 C53.0539286,45.8437921 51.7890478,47.1029478 51.7890478,48.6562909 C51.7890478,50.209634 53.0539286,51.4687897 54.6137034,51.4687897 L60.2630146,51.4687897 L60.2630146,57.9375369 L43.315081,57.9375369 L43.315081,5.62505933 Z M10.0847026,10.2496511 L21.6734171,23.8458328 C19.931452,26.0370506 17.5395337,27.6086749 14.7784328,28.3449871 C12.0280656,29.078768 9.17940047,28.9122681 6.57902252,27.8921748 L10.0847026,10.2496511 Z M7.53601584,34.0296096 C8.78733827,34.2906095 10.0618229,34.4242032 11.3433691,34.4242032 C12.9763025,34.4242032 14.6205346,34.2104533 16.2401921,33.7784535 C19.1320745,33.0072663 21.7369719,31.5908919 23.9046126,29.6589865 L26.8665465,40.6634506 L31.3258303,57.9375369 L13.7737028,57.9375369 L10.5106607,45.0841362 C10.5075535,45.0711987 10.5041639,45.0582612 10.5004919,45.0456049 L7.53601584,34.0296096 Z M85.684915,129.937506 C85.684915,134.589942 81.8834935,138.375002 77.2109482,138.375002 L20.7178361,138.375002 C16.0452908,138.375002 12.2438693,134.589942 12.2438693,129.937506 L12.2438693,74.8125297 L85.684915,74.8125297 L85.684915,129.937506 Z M91.3342262,66.3750333 C91.3342262,67.125408 91.0401796,67.8316264 90.5063197,68.3629074 C89.9721773,68.894751 89.2631887,69.1875321 88.5095706,69.1875321 L9.41921373,69.1875321 C7.86169863,69.1875321 6.59455813,67.9258451 6.59455813,66.3750333 C6.59455813,65.6246586 6.88860477,64.9184402 7.42246468,64.3871591 C7.95660706,63.8553156 8.66559561,63.5625345 9.41921373,63.5625345 L34.9498634,63.5625345 C34.9555127,63.5625345 34.9608796,63.563097 34.9662464,63.563097 C34.9699185,63.563097 34.9735905,63.5625345 34.9772626,63.5625345 L63.852022,63.5625345 C63.8565415,63.5625345 63.8613434,63.563097 63.8658628,63.563097 C63.8689699,63.563097 63.8720771,63.5625345 63.8754666,63.5625345 L86.4924841,63.5625345 C86.4958736,63.5625345 86.4995457,63.563097 86.5029353,63.563097 C86.5085846,63.563097 86.5139514,63.5625345 86.5196008,63.5625345 L88.5098531,63.5625345 C90.0668033,63.5625345 91.3342262,64.8242214 91.3342262,66.3750333 Z M96.5719851,27.1994563 C95.5751642,29.9253302 93.2787191,31.9269855 90.4224274,32.5547353 C88.8595455,32.9017976 87.2302841,32.7940789 85.7103369,32.2436729 C84.1355914,31.6727357 82.7800392,30.6630486 81.7908448,29.3245804 C81.7905623,29.3240179 81.7899974,29.3234554 81.7897149,29.3228929 C80.1011358,27.0411126 79.673483,24.0896764 80.6443171,21.4293338 C81.702998,18.53471 88.5931804,12.3624002 94.5899243,7.66749595 C96.2395232,15.1313053 97.6286888,24.3101763 96.5719851,27.1994563 Z" id="Shape"></path>
        </g>
    </g>
</svg>