<?xml version="1.0" encoding="UTF-8"?>
<svg width="144px" height="123px" viewBox="0 0 144 123" version="1.1" xmlns="http://www.w3.org/2000/svg" xmlns:xlink="http://www.w3.org/1999/xlink">
    <!-- Generator: Sketch 55.1 (78136) - https://sketchapp.com -->
    <title>UI onboarding enti 9 (1)</title>
    <desc>Created with Sketch.</desc>
    <g id="UI-onboarding-enti-9-(1)" stroke="none" stroke-width="1" fill="none" fill-rule="evenodd">
        <g id="delivery-truck" transform="translate(3.000000, 5.473485)" fill="#FFFFFF" fill-rule="nonzero">
            <path d="M47.4983137,56.5265152 C46.4649392,56.5265152 45.5244415,55.866626 45.1578232,54.9046539 C44.7833838,53.9182416 45.0913431,52.7558585 45.9106125,52.089126 C46.7328148,51.4204381 47.9177251,51.3363632 48.8191169,51.8984912 C49.6931348,52.4420445 50.1545849,53.5008004 49.9531891,54.5126308 C49.7234417,55.6662149 48.6754025,56.5265152 47.4983137,56.5265152 Z" id="Path"></path>
            <path d="M34.2728018,56.5265152 L13.7271982,56.5265152 C12.2208475,56.5265152 11,55.4073747 11,54.0265152 C11,52.6456559 12.2208475,51.5265152 13.7271982,51.5265152 L34.2728018,51.5265152 C35.7791528,51.5265152 37,52.6456559 37,54.0265152 C37,55.4073747 35.7791528,56.5265152 34.2728018,56.5265152 Z" id="Path"></path>
            <path d="M79.2729135,56.5265152 L58.7270865,56.5265152 C57.2207972,56.5265152 56,55.4073747 56,54.0265152 C56,52.6456559 57.2207972,51.5265152 58.7270865,51.5265152 L79.2729135,51.5265152 C80.7781374,51.5265152 82,52.6456559 82,54.0265152 C82,55.4073747 80.7781374,56.5265152 79.2729135,56.5265152 Z" id="Path"></path>
            <path d="M127.949379,50.4158839 L125.911186,50.4158839 L115.84774,27.5606377 C113.741608,22.7775229 109.039131,19.6759057 103.867348,19.6600325 L93.018936,19.6240534 L93.018936,11.0885215 C93.018936,5.2641268 88.3488618,0.526515152 82.6084746,0.526515152 L10.4104614,0.526515152 C4.67007446,0.526515152 0,5.2641268 0,11.0885215 L0,96.4978088 C0,97.9941194 1.19783007,99.2068296 2.67578125,99.2068296 L17.9099656,99.2068296 C19.7746506,105.737051 25.7324448,110.526515 32.7751846,110.526515 C39.8179246,110.526515 45.7757188,105.737051 47.6404038,99.2068296 L93.6136704,99.2068296 C95.47731,105.737051 101.43615,110.526515 108.477844,110.526515 C115.520584,110.526515 121.479424,105.737051 123.343063,99.2068296 L134.324219,99.2068296 C135.80217,99.2068296 137,97.9941194 137,96.4978088 L137,59.5810517 C137,54.5280929 132.939293,50.4158839 127.949379,50.4158839 Z M131.648438,59.5810517 L131.648438,79.2034625 L93.0178909,79.2034625 L93.0178909,55.8339255 L127.949379,55.8339255 C129.988617,55.8339255 131.648438,57.5154233 131.648438,59.5810517 L131.648438,59.5810517 Z M93.0450669,93.7887881 L48.2090073,93.7887881 C47.973831,90.2977491 46.6024932,87.1157078 44.4681396,84.621504 L96.7859346,84.621504 C94.6505357,87.1157078 93.2802429,90.2977491 93.0450669,93.7887881 Z M5.3515625,79.2034625 L5.3515625,68.7515101 L87.6663284,68.7515101 L87.6663284,79.2034625 L5.3515625,79.2034625 Z M103.849579,25.078074 C106.919411,25.0875979 109.710167,26.9288857 110.960259,29.7670081 L120.051643,50.4158839 L93.0178909,50.4158839 L93.0178909,25.042095 L103.849579,25.078074 Z M56.3053359,5.94455669 L56.3053359,32.4157109 L47.6184541,28.4072067 C47.2662124,28.2442421 46.8878403,28.1627599 46.509468,28.1627599 C46.1300508,28.1627599 45.7516785,28.2442421 45.399437,28.4072067 L36.7125549,32.4157109 L36.7125549,5.94455669 L56.3053359,5.94455669 Z M5.3515625,11.0885215 C5.3515625,8.2514572 7.62075049,5.94455669 10.4104614,5.94455669 L31.3609924,5.94455669 L31.3609924,36.6273916 C31.3609924,37.5490934 31.8240281,38.4073028 32.5901794,38.9057204 C33.3542405,39.4041379 34.3179397,39.4739797 35.1468047,39.0919655 L46.509468,33.8495869 L57.8710862,39.0919655 C58.225418,39.2559884 58.6037903,39.3364124 58.9811172,39.3364124 C59.4870071,39.3364124 59.9897612,39.1914373 60.4287568,38.9057204 C61.1938628,38.4073028 61.6568984,37.5490934 61.6568984,36.6273916 L61.6568984,5.94455669 L82.6084746,5.94455669 C85.3971406,5.94455669 87.6663284,8.25251534 87.6663284,11.0885215 L87.6663284,63.3334686 L5.3515625,63.3334686 L5.3515625,11.0885215 Z M5.3515625,84.621504 L21.0822295,84.621504 C18.947876,87.1157078 17.5765381,90.2977491 17.3413621,93.7887881 L5.3515625,93.7887881 L5.3515625,84.621504 Z M32.7751846,105.108474 C27.1957627,105.108474 22.6573867,100.513721 22.6573867,94.8649888 C22.6573867,89.2173155 27.1957627,84.621504 32.7751846,84.621504 C38.3546067,84.621504 42.8929826,89.2173155 42.8929826,94.8649888 C42.8940278,100.513721 38.3546067,105.108474 32.7751846,105.108474 Z M108.477844,105.108474 C102.899468,105.108474 98.3600464,100.513721 98.3600464,94.8649888 C98.3600464,89.2173155 102.899468,84.621504 108.477844,84.621504 C114.057266,84.621504 118.596687,89.2173155 118.596687,94.8649888 C118.596687,100.513721 114.057266,105.108474 108.477844,105.108474 Z M131.648437,93.7887881 L123.911667,93.7887881 C123.676491,90.2977491 122.306198,87.1157078 120.171844,84.621504 L131.648437,84.621504 L131.648437,93.7887881 Z" id="Shape"></path>
        </g>
    </g>
</svg>