<?xml version="1.0" encoding="UTF-8"?>
<svg width="144px" height="135px" viewBox="0 0 144 135" version="1.1" xmlns="http://www.w3.org/2000/svg" xmlns:xlink="http://www.w3.org/1999/xlink">
    <!-- Generator: Sketch 55.1 (78136) - https://sketchapp.com -->
    <title>UI onboarding enti 10</title>
    <desc>Created with Sketch.</desc>
    <g id="UI-onboarding-enti-10" stroke="none" stroke-width="1" fill="none" fill-rule="evenodd" opacity="0.358142671">
        <g id="hourglass" transform="translate(19.933884, 4.500000)" fill="#3F556D" fill-rule="nonzero">
            <circle id="Oval" cx="52.0661157" cy="54.5" r="2"></circle>
            <circle id="Oval" cx="58.0661157" cy="51.5" r="2"></circle>
            <circle id="Oval" cx="46.0661157" cy="51.5" r="2"></circle>
            <circle id="Oval" cx="40.0661157" cy="46.5" r="2"></circle>
            <circle id="Oval" cx="64.0661157" cy="46.5" r="2"></circle>
            <circle id="Oval" cx="71.0661157" cy="43.5" r="2"></circle>
            <circle id="Oval" cx="33.0661157" cy="43.5" r="2"></circle>
            <circle id="Oval" cx="52.0661157" cy="46.5" r="2"></circle>
            <circle id="Oval" cx="52.0661157" cy="71.5" r="2"></circle>
            <circle id="Oval" cx="52.0661157" cy="78.5" r="2"></circle>
            <circle id="Oval" cx="52.0661157" cy="84.5" r="2"></circle>
            <circle id="Oval" cx="52.0661157" cy="90.5" r="2"></circle>
            <circle id="Oval" cx="52.0661157" cy="96.5" r="2"></circle>
            <circle id="Oval" cx="52.0661157" cy="103.5" r="2"></circle>
            <path d="M101.986116,121.333333 L95.7461157,121.333333 L95.7461157,113 L85.3461157,113 L85.3461157,91.7041667 C85.3461157,86.0791667 82.5547557,80.8541667 77.8809957,77.7333333 L55.8163557,63 L77.8809957,48.2666667 C82.5547557,45.1458333 85.3461157,39.9208333 85.3461157,34.2958333 L85.3461157,13 L95.7461157,13 L95.7461157,4.66666667 L101.986116,4.66666667 C103.134276,4.66666667 104.066116,3.73541667 104.066116,2.58333333 C104.066116,1.43125 103.134276,0.5 101.986116,0.5 L95.7461157,0.5 L93.6661157,0.5 L10.4661157,0.5 L8.3861157,0.5 L2.1461157,0.5 C0.997955702,0.5 0.0661157025,1.43125 0.0661157025,2.58333333 C0.0661157025,3.73541667 0.997955702,4.66666667 2.1461157,4.66666667 L8.3861157,4.66666667 L8.3861157,13 L18.7861157,13 L18.7861157,34.2958333 C18.7861157,39.9208333 21.5774757,45.1458333 26.2512357,48.2666667 L48.3158757,63 L26.2512357,77.7333333 C21.5774757,80.8541667 18.7861157,86.0791667 18.7861157,91.7041667 L18.7861157,113 L8.3861157,113 L8.3861157,121.333333 L2.1461157,121.333333 C0.997955702,121.333333 0.0661157025,122.264583 0.0661157025,123.416667 C0.0661157025,124.56875 0.997955702,125.5 2.1461157,125.5 L8.3861157,125.5 L10.4661157,125.5 L93.6661157,125.5 L95.7461157,125.5 L101.986116,125.5 C103.134276,125.5 104.066116,124.56875 104.066116,123.416667 C104.066116,122.264583 103.134276,121.333333 101.986116,121.333333 Z M12.5461157,8.83333333 L12.5461157,4.66666667 L91.5861157,4.66666667 L91.5861157,8.83333333 L85.3461157,8.83333333 L18.7861157,8.83333333 L12.5461157,8.83333333 Z M28.5579557,44.8 C25.0448357,42.4520833 22.9461157,38.525 22.9461157,34.2958333 L22.9461157,13 L81.1861157,13 L81.1861157,34.2958333 C81.1861157,38.525 79.0873957,42.4520833 75.5742757,44.8 L52.0661157,60.4958333 L28.5579557,44.8 Z M22.9461157,91.7041667 C22.9461157,87.475 25.0448357,83.5479167 28.5579557,81.2 L52.0661157,65.5041667 L75.5742757,81.2 C79.0873957,83.5479167 81.1861157,87.475 81.1861157,91.7041667 L81.1861157,113 L22.9461157,113 L22.9461157,91.7041667 Z M12.5461157,117.166667 L18.7861157,117.166667 L85.3461157,117.166667 L91.5861157,117.166667 L91.5861157,121.333333 L12.5461157,121.333333 L12.5461157,117.166667 Z" id="Shape"></path>
        </g>
    </g>
</svg>