<?xml version="1.0" encoding="UTF-8"?>
<svg width="582px" height="470px" viewBox="0 0 582 470" version="1.1" xmlns="http://www.w3.org/2000/svg" xmlns:xlink="http://www.w3.org/1999/xlink">
    <!-- Generator: Sketch 56.2 (81672) - https://sketch.com -->
    <title>io - logo</title>
    <desc>Created with Sketch.</desc>
    <g id="Symbols" stroke="none" stroke-width="1" fill="none" fill-rule="evenodd">
        <g id="io---logo-blu" fill="#0065CC">
            <path d="M399.76908,470 C496.33306,470 582,384.402915 582,278.813559 C582,173.224204 496.33306,87.6271186 399.76908,87.6271186 C284.982008,87.6271186 199.315068,173.224204 199.315068,278.813559 C199.315068,384.402915 284.982008,470 399.76908,470 Z M351.114735,345.12555 L351.114735,237.8314 L379.17193,237.8314 L379.17193,345.316464 L351.114735,345.316464 L351.114735,345.12555 Z M461.299614,262.268501 L435.657939,262.268501 L435.657939,306.369833 C435.657939,310.760875 435.843749,313.624598 436.029558,315.533747 C436.215367,317.25198 436.958604,318.779299 438.259269,320.115703 C439.559933,321.452107 441.603835,322.024852 444.390974,322.024852 L460.370568,321.643022 L461.671233,344.552805 C452.380771,346.652869 445.134211,347.798358 440.30317,347.798358 C427.668142,347.798358 419.120917,344.934635 414.661495,339.016274 C410.016264,333.288828 407.786553,322.597596 407.786553,306.942578 L407.786553,207.857767 L435.843749,207.857767 L435.843749,237.640485 L461.485424,237.640485 L461.485424,262.268501 L461.299614,262.268501 Z M308.936038,270.47784 C304.104998,270.47784 300.017195,268.759607 296.858437,265.323139 C293.69968,261.886672 292.027397,257.686545 292.027397,252.722758 C292.027397,247.758972 293.69968,243.558845 296.672628,240.122378 C299.831385,236.68591 303.919189,235.158591 308.750229,235.158591 C313.581269,235.158591 317.669072,236.876825 320.827829,240.313293 C323.986586,243.74976 325.47306,247.949887 325.47306,253.104588 C325.47306,258.259289 323.986586,262.268501 320.827829,265.704969 C317.854882,268.759607 313.952888,270.47784 308.936038,270.47784 Z M58.2279942,171.346338 C85.4389762,171.346338 107.497835,193.405198 107.497835,220.61618 L107.497835,411.979544 C107.497835,439.190526 85.4389762,461.249386 58.2279942,461.249386 C31.0170123,461.249386 8.95815296,439.190526 8.95815296,411.979544 L8.95815296,220.61618 C8.95815296,193.405198 31.0170123,171.346338 58.2279942,171.346338 Z M58.2279942,117.236968 C26.069561,117.236968 0,90.992579 0,58.6184842 C0,26.2443893 26.069561,2.84217094e-14 58.2279942,2.84217094e-14 C90.3864275,2.84217094e-14 116.455988,26.2443893 116.455988,58.6184842 C116.455988,90.992579 90.3864275,117.236968 58.2279942,117.236968 Z" id="io---logo"></path>
        </g>
    </g>
</svg>