<?xml version="1.0" encoding="UTF-8"?>
<svg width="80px" height="80px" viewBox="0 0 80 80" version="1.1" xmlns="http://www.w3.org/2000/svg" xmlns:xlink="http://www.w3.org/1999/xlink">
    <!-- Generator: Sketch 55.1 (78136) - https://sketchapp.com -->
    <title>UI accesso DE 1_3</title>
    <desc>Created with Sketch.</desc>
    <g id="UI-accesso-DE-1_3" stroke="none" stroke-width="1" fill="none" fill-rule="evenodd">
        <g id="court" transform="translate(4.000000, 4.000000)" fill="#FFFFFF" fill-rule="nonzero">
            <path d="M40.1083311,53 C39.824858,53 39.5408439,52.8912337 39.3249932,52.6753247 C38.8916689,52.241883 38.8916689,51.5416666 39.3249932,51.1082251 L40.1083311,50.3246753 C40.5416554,49.8917749 41.2416825,49.8917749 41.6750068,50.3246753 C42.1083311,50.7581168 42.1083311,51.4583332 41.6750068,51.8917749 L40.8916689,52.6753247 C40.6758182,52.8912337 40.3918042,53 40.1083311,53 Z" id="Path"></path>
            <path d="M40.6018743,53 C40.4564813,53 40.3087431,52.9881819 40.1633499,52.9615913 C39.3128781,52.8094339 38.818854,52.2520158 39.0619577,51.7162641 L40.85983,47.7340733 C41.0998069,47.1983216 41.9846728,46.883666 42.8367078,47.0402552 C43.6863979,47.1924126 44.1812036,47.7498307 43.9381001,48.2855823 L42.1402276,52.2677732 C41.9401166,52.7104576 41.2983544,53 40.6018743,53 L40.6018743,53 Z" id="Path"></path>
            <path d="M43.0073413,53 C42.5676426,53 42.1643804,52.5402374 42.0383302,51.8357376 C41.8871684,50.984239 42.1963853,50.0983363 42.7320988,49.8582903 L46.715975,48.0630276 C47.2526733,47.8167263 47.810544,48.3148023 47.9617058,49.1647371 C48.1128676,50.0170178 47.8031582,50.9021386 47.2679372,51.1429665 L43.2835685,52.9374473 C43.1919851,52.9812342 43.0989246,53 43.0073413,53 L43.0073413,53 Z" id="Path"></path>
            <path d="M45.9644798,50 C45.6990267,50 45.4340792,49.8988648 45.2323347,49.6965943 L42.3037542,46.7682233 C41.8987486,46.3631767 41.8987486,45.7083259 42.3037542,45.303785 C42.7087599,44.8987383 43.3630388,44.8987383 43.7680445,45.303785 L46.696625,48.232156 C47.101125,48.6372026 47.101125,49.2920533 46.696625,49.6965943 C46.4943749,49.8988648 46.2294274,50 45.9644798,50 L45.9644798,50 Z" id="Path"></path>
            <path d="M59.9640745,37 C59.6991202,37 59.434166,36.8988852 59.2324164,36.6966556 L56.3037619,33.7678657 C55.898746,33.362901 55.898746,32.7081827 56.3037619,32.3037235 C56.7087779,31.8987588 57.3630733,31.8987588 57.7680892,32.3037235 L60.6962381,35.233019 C61.101254,35.6374782 61.101254,36.2921965 60.6962381,36.6966556 C60.4934773,36.8998963 60.2295343,37 59.9640745,37 Z" id="Path"></path>
            <path d="M43.1146277,48 C42.8295441,48 42.5439166,47.8906483 42.3268396,47.673577 C41.8910535,47.2378023 41.8910535,46.5332727 42.3268396,46.098042 L66.0975842,22.326831 C66.5333703,21.8910563 67.2373744,21.8910563 67.6731604,22.326831 C68.1089465,22.7620617 68.1089465,23.4665913 67.6731604,23.902366 L43.9024158,47.673577 C43.6847948,47.8906483 43.3997112,48 43.1146277,48 Z" id="Path"></path>
            <path d="M46.1146452,51 C45.8290131,51 45.5439251,50.8911861 45.3268447,50.6735582 C44.8910518,50.2383025 44.8910518,49.5337323 45.3268447,49.0979325 L69.0979624,25.3264418 C69.5332113,24.8911861 70.2377704,24.8911861 70.6735633,25.3264418 C71.1088122,25.7622417 71.1088122,26.4668117 70.6735633,26.9020675 L46.9024456,50.6735582 C46.6848212,50.8911861 46.3997332,51 46.1146452,51 Z" id="Path"></path>
            <path d="M70.2437309,27 C69.9595887,27 69.6759878,26.8917163 69.4600397,26.6751489 C69.02652,26.2420141 69.02652,25.5408772 69.4600397,25.1072008 C69.8919359,24.674066 69.8919359,23.9718462 69.4600397,23.5387114 C69.0286849,23.1072009 68.3234711,23.106118 67.8926575,23.5397943 C67.4591378,23.9707635 66.7577125,23.9718462 66.3241928,23.5387114 C65.8917555,23.1039524 65.8917555,22.4028154 66.3252752,21.9696806 C67.6220459,20.6767731 69.7301101,20.6767731 71.027422,21.9696806 C72.3241927,23.2680021 72.3241927,25.3779102 71.027422,26.6751489 C70.8109327,26.8917163 70.5273318,27 70.2437309,27 Z" id="Path"></path>
            <path d="M70.1604682,32 C69.8631302,32 69.5663584,31.8983565 69.3403814,31.6965866 C68.8867285,31.2915297 68.8867285,30.6371682 69.3403814,30.2321112 C69.5584293,30.0364097 69.6801964,29.7764855 69.6801964,29.4998736 C69.6801964,29.2222503 69.5595621,28.9633376 69.3403814,28.7686473 C68.8867285,28.3635905 68.8867285,27.7092288 69.3392488,27.3031605 C69.7923354,26.8986093 70.5269021,26.8996208 70.9805551,27.3021492 C71.6369644,27.8882428 72,28.6695323 72,29.4998736 C72,30.3297093 71.6369644,31.1104931 70.9805551,31.6965866 C70.7540117,31.8983565 70.45724,32 70.1604682,32 Z" id="Path"></path>
            <path d="M62.1392968,40 C61.8477971,40 61.5562973,39.8887514 61.3337784,39.6662541 C60.8887405,39.2207033 60.8887405,38.5009247 61.3337784,38.055374 L69.0551847,30.334163 C69.5002225,29.8886123 70.2206275,29.8886123 70.6662216,30.334163 C71.1112595,30.7797139 71.1112595,31.4994924 70.6662216,31.9450431 L62.9448153,39.6662541 C62.7228527,39.8898638 62.4313529,40 62.1392968,40 Z" id="Path"></path>
            <path d="M69.9160915,29 C69.6382341,29 69.3609059,28.8941589 69.1497343,28.6824767 L65.3179482,24.8499703 C64.8940173,24.4266058 64.8940173,23.7412846 65.3179482,23.3179202 C65.7418792,22.8940266 66.4267317,22.8940266 66.8506627,23.3179202 L70.6824487,27.1498974 C71.1058504,27.5737912 71.1058504,28.2585831 70.6824487,28.6824767 C70.4707478,28.8941589 70.1934196,29 69.9160915,29 Z" id="Path"></path>
            <path d="M50.8863636,68 L4.11363636,68 C3.49754753,68 3,67.5019531 3,66.8852459 L3,1.1147541 C3,0.49804691 3.49754753,0 4.11363636,0 L44.2045455,0 C44.5008988,0 44.7836581,0.117027443 44.9919212,0.326588115 L51.6737393,7.0151127 C51.8820024,7.22358482 52,7.50662785 52,7.80327869 L52,38.0975922 C52,38.7142994 51.5024525,39.2123463 50.8863636,39.2123463 C50.2702748,39.2123463 49.7727273,38.7142994 49.7727273,38.0975922 L49.7727273,8.26485656 L43.7434304,2.2295082 L5.22727273,2.2295082 L5.22727273,65.7704918 L49.7727273,65.7704918 L49.7727273,44.4029201 C49.7727273,43.7862129 50.2702748,43.288166 50.8863636,43.288166 C51.5024525,43.288166 52,43.7862129 52,44.4029201 L52,66.8852459 C52,67.5019531 51.5024525,68 50.8863636,68 Z" id="Path"></path>
            <path d="M45.5,10 C44.6701661,10 44,9.49737545 44,8.875 L44,2.125 C44,1.50262455 44.6701661,1 45.5,1 C46.3298339,1 47,1.50262455 47,2.125 L47,8.875 C47,9.49737545 46.3298339,10 45.5,10 Z" id="Path"></path>
            <path d="M51.875,10 L45.125,10 C44.5026245,10 44,9.32983394 44,8.5 C44,7.67016606 44.5026245,7 45.125,7 L51.875,7 C52.4973755,7 53,7.67016606 53,8.5 C53,9.32983394 52.4973755,10 51.875,10 Z" id="Path"></path>
            <path d="M42.8571429,32 L13.1428571,32 C12.5106027,32 12,31.3298339 12,30.5 C12,29.6708983 12.5106027,29 13.1428571,29 L42.8571429,29 C43.4893973,29 44,29.6708983 44,30.5 C44,31.3298339 43.4893973,32 42.8571429,32 Z" id="Path"></path>
            <path d="M42.8571429,37 L13.1428571,37 C12.5106027,37 12,36.3298339 12,35.5 C12,34.6708984 12.5106027,34 13.1428571,34 L42.8571429,34 C43.4893973,34 44,34.6708984 44,35.5 C44,36.3298339 43.4893973,37 42.8571429,37 Z" id="Path"></path>
            <path d="M42.8571429,42 L13.1428571,42 C12.5106027,42 12,41.3298341 12,40.5 C12,39.6708986 12.5106027,39 13.1428571,39 L42.8571429,39 C43.4893973,39 44,39.6708986 44,40.5 C44,41.3298341 43.4893973,42 42.8571429,42 Z" id="Path"></path>
            <path d="M28.8666667,49 L14.1333333,49 C13.5063477,49 13,48.3298339 13,47.5 C13,46.6708984 13.5063477,46 14.1333333,46 L28.8666667,46 C29.4936523,46 30,46.6708984 30,47.5 C30,48.3298339 29.4936523,49 28.8666667,49 Z" id="Path"></path>
            <path d="M42.8888889,60 L35.1111111,60 C34.4964193,60 34,59.3298339 34,58.5 C34,57.6708983 34.4964193,57 35.1111111,57 L42.8888889,57 C43.5035807,57 44,57.6708983 44,58.5 C44,59.3298339 43.5035807,60 42.8888889,60 Z" id="Path"></path>
            <path d="M40.5,61 C39.6701661,61 39,60.5532226 39,60 L39,56 C39,55.4472655 39.6701661,55 40.5,55 C41.3298339,55 42,55.4472655 42,56 L42,60 C42,60.5532226 41.3298339,61 40.5,61 Z" id="Path"></path>
            <path d="M40.0015942,61 C39.6963921,61 39.3975383,60.8622855 39.2007439,60.600042 L36.2004855,56.5994856 C35.8684256,56.1585063 35.9582771,55.531466 36.4002098,55.2003652 C36.8401891,54.8692645 37.4671962,54.9571674 37.7992561,55.4001001 L40.7995145,59.4006565 C41.1315744,59.8421241 41.0417229,60.4691644 40.5997903,60.8002651 C40.4205756,60.9350495 40.2105967,61 40.0015942,61 Z" id="Path"></path>
            <path d="M37.5,61 C36.6701661,61 36,60.5532226 36,60 L36,56 C36,55.4472655 36.6701661,55 37.5,55 C38.3298339,55 39,55.4472655 39,56 L39,60 C39,60.5532226 38.3298339,61 37.5,61 Z" id="Path"></path>
            <path d="M48.5,72 C47.6701661,72 47,71.5532226 47,71 L47,68 C47,67.4467774 47.6701661,67 48.5,67 C49.3298339,67 50,67.4467774 50,68 L50,71 C50,71.5532226 49.3298339,72 48.5,72 Z" id="Path"></path>
            <path d="M48.8863636,72 L2.11363636,72 C1.49754753,72 1,71.3298339 1,70.5 C1,69.6701661 1.49754753,69 2.11363636,69 L48.8863636,69 C49.5024525,69 50,69.6701661 50,70.5 C50,71.3298339 49.5024525,72 48.8863636,72 Z" id="Path"></path>
            <path d="M1.5,70 C0.670166063,70 0,69.5019531 0,68.8852459 L0,3.1147541 C0,2.49804691 0.670166062,2 1.5,2 C2.32983394,2 3,2.49804691 3,3.1147541 L3,68.8852459 C3,69.5019531 2.32983394,70 1.5,70 Z" id="Path"></path>
            <path d="M5,5 L2,5 C1.44677737,5 1,4.32983394 1,3.5 C1,2.67016606 1.44677737,2 2,2 L5,2 C5.55322263,2 6,2.67016606 6,3.5 C6,4.32983394 5.55322263,5 5,5 Z" id="Path"></path>
            <path d="M21.9997253,24 C18.3793436,24 15.0759511,21.9882801 13.1619283,18.6223264 C12.9460239,18.2402578 12.9460239,17.7591562 13.1619283,17.3776736 C15.0759511,14.0099618 18.3804422,12 21.9997253,12 C25.6179097,12 28.921302,14.0099618 30.8364235,17.3776736 C31.0545255,17.7591562 31.0545255,18.2402578 30.8364235,18.6223264 C28.921302,21.9894522 25.6179097,24 21.9997253,24 Z M15.4720505,17.999414 C17.0086527,20.2672136 19.4017306,21.5997656 21.9997253,21.5997656 C24.5955225,21.5997656 26.9886004,20.2672136 28.5268506,17.999414 C26.9886004,15.7310285 24.5955225,14.3990623 21.9997253,14.3990623 C19.4017306,14.3990623 17.0086527,15.7310285 15.4720505,17.999414 Z" id="Shape"></path>
            <path d="M22,21 C20.3461914,21 19,19.6538086 19,18 C19,16.3457032 20.3461914,15 22,15 C23.6538086,15 25,16.3457032 25,18 C25,19.6538086 23.6538086,21 22,21 Z M22,17 C21.4482422,17 21,17.447754 21,18 C21,18.5517579 21.4482422,19 22,19 C22.5517578,19 23,18.5517579 23,18 C23,17.447754 22.5517578,17 22,17 Z" id="Shape"></path>
        </g>
    </g>
</svg>