<?xml version="1.0" encoding="UTF-8"?>
<svg width="80px" height="80px" viewBox="0 0 80 80" version="1.1" xmlns="http://www.w3.org/2000/svg" xmlns:xlink="http://www.w3.org/1999/xlink">
    <!-- Generator: Sketch 55.1 (78136) - https://sketchapp.com -->
    <title>UI accesso DE 1_2</title>
    <desc>Created with Sketch.</desc>
    <g id="UI-accesso-DE-1_2" stroke="none" stroke-width="1" fill="none" fill-rule="evenodd">
        <g id="control" transform="translate(1.000000, 13.023568)">
            <path d="M20.125,21.3514321 L22.375,21.3514321 L22.375,25.8514321 C22.375,26.4727524 22.8786797,26.9764321 23.5,26.9764321 C24.1213203,26.9764321 24.625,26.4727524 24.625,25.8514321 L24.625,21.3514321 L26.875,21.3514321 C27.4963203,21.3514321 28,20.8477524 28,20.2264321 L28,16.8514321 C28,16.2301117 27.4963203,15.7264321 26.875,15.7264321 L24.625,15.7264321 L24.625,10.1014321 C24.625,9.48011174 24.1213203,8.97643208 23.5,8.97643208 C22.8786797,8.97643208 22.375,9.48011174 22.375,10.1014321 L22.375,15.7264321 L20.125,15.7264321 C19.5036797,15.7264321 19,16.2301117 19,16.8514321 L19,20.2264321 C19,20.8477524 19.5036797,21.3514321 20.125,21.3514321 Z M21.25,17.9764321 L25.75,17.9764321 L25.75,19.1014321 L21.25,19.1014321 L21.25,17.9764321 Z" id="Shape" fill="#FFFFFF" fill-rule="nonzero"></path>
            <path d="M8.125,17.9764321 L10.375,17.9764321 L10.375,25.8514321 C10.375,26.4727524 10.8786797,26.9764321 11.5,26.9764321 C12.1213203,26.9764321 12.625,26.4727524 12.625,25.8514321 L12.625,17.9764321 L14.875,17.9764321 C15.4963203,17.9764321 16,17.4727524 16,16.8514321 L16,13.4764321 C16,12.8551117 15.4963203,12.3514321 14.875,12.3514321 L12.625,12.3514321 L12.625,10.1014321 C12.625,9.48011174 12.1213203,8.97643208 11.5,8.97643208 C10.8786797,8.97643208 10.375,9.48011174 10.375,10.1014321 L10.375,12.3514321 L8.125,12.3514321 C7.50367966,12.3514321 7,12.8551117 7,13.4764321 L7,16.8514321 C7,17.4727524 7.50367966,17.9764321 8.125,17.9764321 Z M9.25,14.6014321 L13.75,14.6014321 L13.75,15.7264321 L9.25,15.7264321 L9.25,14.6014321 Z" id="Shape" fill="#FFFFFF" fill-rule="nonzero"></path>
            <path d="M37.875,17.9764321 L35.625,17.9764321 L35.625,10.1014321 C35.625,9.48011174 35.1213203,8.97643208 34.5,8.97643208 C33.8786797,8.97643208 33.375,9.48011174 33.375,10.1014321 L33.375,17.9764321 L31.125,17.9764321 C30.5036797,17.9764321 30,18.4801117 30,19.1014321 L30,22.4764321 C30,23.0977524 30.5036797,23.6014321 31.125,23.6014321 L33.375,23.6014321 L33.375,25.8514321 C33.375,26.4727524 33.8786797,26.9764321 34.5,26.9764321 C35.1213203,26.9764321 35.625,26.4727524 35.625,25.8514321 L35.625,23.6014321 L37.875,23.6014321 C38.4963203,23.6014321 39,23.0977524 39,22.4764321 L39,19.1014321 C39,18.4801117 38.4963203,17.9764321 37.875,17.9764321 Z M36.75,21.3514321 L32.25,21.3514321 L32.25,20.2264321 L36.75,20.2264321 L36.75,21.3514321 Z" id="Shape" fill="#FFFFFF" fill-rule="nonzero"></path>
            <rect id="Rectangle" stroke="#FFFFFF" stroke-width="3" x="48.5" y="37.4764321" width="3" height="6" rx="1.5"></rect>
            <rect id="Rectangle-Copy" stroke="#FFFFFF" stroke-width="3" x="57.5" y="32.4764321" width="3" height="12" rx="1.5"></rect>
            <rect id="Rectangle-Copy-2" stroke="#FFFFFF" stroke-width="3" x="65.5" y="20.4764321" width="3" height="23" rx="1.5"></rect>
            <rect id="Rectangle-Copy-2" stroke="#FFFFFF" stroke-width="3" x="1.5" y="2.47643208" width="74" height="48" rx="3"></rect>
            <polygon id="Rectangle" fill="#FFFFFF" fill-rule="nonzero" transform="translate(52.726057, 15.833128) rotate(-45.000000) translate(-52.726057, -15.833128) " points="46.4308418 14.7856606 59.0212728 14.7856606 59.0212728 16.880596 46.4308418 16.880596"></polygon>
            <path d="M52,11.9764321 C52,10.3224321 50.654,8.97643208 49,8.97643208 C47.346,8.97643208 46,10.3224321 46,11.9764321 C46,13.6304321 47.346,14.9764321 49,14.9764321 C50.654,14.9764321 52,13.6304321 52,11.9764321 Z M48,11.9764321 C48,11.4244321 48.448,10.9764321 49,10.9764321 C49.552,10.9764321 50,11.4244321 50,11.9764321 C50,12.5284321 49.552,12.9764321 49,12.9764321 C48.448,12.9764321 48,12.5284321 48,11.9764321 Z" id="Shape" fill="#FFFFFF" fill-rule="nonzero"></path>
            <path d="M57,15.9764321 C55.346,15.9764321 54,17.3224321 54,18.9764321 C54,20.6304321 55.346,21.9764321 57,21.9764321 C58.654,21.9764321 60,20.6304321 60,18.9764321 C60,17.3224321 58.654,15.9764321 57,15.9764321 Z M57,19.9764321 C56.448,19.9764321 56,19.5284321 56,18.9764321 C56,18.4244321 56.448,17.9764321 57,17.9764321 C57.552,17.9764321 58,18.4244321 58,18.9764321 C58,19.5284321 57.552,19.9764321 57,19.9764321 Z" id="Shape" fill="#FFFFFF" fill-rule="nonzero"></path>
            <path d="M36.8571429,28.9764321 L7.14285714,28.9764321 C6.51167457,28.9764321 6,29.5136904 6,30.1764321 L6,33.7764321 C6,34.4391738 6.51167457,34.9764321 7.14285714,34.9764321 L36.8571429,34.9764321 C37.4883254,34.9764321 38,34.4391738 38,33.7764321 L38,30.1764321 C38,29.5136904 37.4883254,28.9764321 36.8571429,28.9764321 Z M35.7142857,32.5764321 L8.28571429,32.5764321 L8.28571429,31.3764321 L35.7142857,31.3764321 L35.7142857,32.5764321 Z" id="Shape" fill="#FFFFFF" fill-rule="nonzero"></path>
            <path d="M34.5,35.9764321 C32.0147186,35.9764321 30,37.9911507 30,40.4764321 C30,42.9617135 32.0147186,44.9764321 34.5,44.9764321 C36.9852814,44.9764321 39,42.9617135 39,40.4764321 C39,37.9911507 36.9852814,35.9764321 34.5,35.9764321 Z M34.5,42.7264321 C33.2573593,42.7264321 32.25,41.7190728 32.25,40.4764321 C32.25,39.2337914 33.2573593,38.2264321 34.5,38.2264321 C34.6945079,38.2290761 34.8878107,38.2574474 35.074875,38.3108071 L34.829625,38.5560571 C34.5371738,38.8385159 34.4198858,39.2567947 34.5228407,39.6501278 C34.6257956,40.0434609 34.9329711,40.3506365 35.3263043,40.4535914 C35.7196374,40.5565463 36.1379162,40.4392582 36.420375,40.1468071 L36.665625,39.9015571 C36.7189847,40.0886214 36.747356,40.2819242 36.75,40.4764321 C36.75,41.7190728 35.7426407,42.7264321 34.5,42.7264321 L34.5,42.7264321 Z" id="Shape" fill="#FFFFFF" fill-rule="nonzero"></path>
            <path d="M23.5011462,35.9764448 C21.3544097,35.9759991 19.5063049,37.4920689 19.0870807,39.5974815 C18.6678564,41.7028941 19.7942754,43.8112478 21.7774516,44.6331329 C23.7606277,45.4550181 26.0482049,44.7615224 27.2411653,42.9767683 C28.4341257,41.1920142 28.2002048,38.8130932 26.6824621,37.2948863 C25.8405582,36.4483235 24.6950713,35.9736008 23.5011462,35.9764448 L23.5011462,35.9764448 Z M25.0918042,42.066878 C24.2017928,42.9171227 22.8004996,42.9171227 21.9104883,42.066878 C21.7745692,41.9276617 21.6576849,41.7710588 21.5628834,41.6011532 L21.9104883,41.6011532 C22.5317727,41.6011532 23.0354232,41.0975008 23.0354232,40.4762141 C23.0354232,39.8549274 22.5317727,39.351275 21.9104883,39.351275 L21.5628834,39.351275 C21.6576849,39.1813694 21.7745692,39.0247665 21.9104883,38.8855502 C22.4753731,38.3006795 23.3118824,38.0661162 24.0985031,38.2720148 C24.8851238,38.4779134 25.4994394,39.0922313 25.7053373,39.8788549 C25.9112351,40.6654786 25.6766726,41.501991 25.0918042,42.066878 L25.0918042,42.066878 Z" id="Shape" fill="#FFFFFF" fill-rule="nonzero"></path>
            <path d="M11.5,35.9764321 C9.01471863,35.9764321 7,37.9911507 7,40.4764321 C7,42.9617135 9.01471863,44.9764321 11.5,44.9764321 C13.9852814,44.9764321 16,42.9617135 16,40.4764321 C16,37.9911507 13.9852814,35.9764321 11.5,35.9764321 Z M11.5,42.7264321 C11.3054921,42.723788 11.1121893,42.6954168 10.925125,42.6420571 L11.170375,42.3968071 C11.5967187,41.9553808 11.5906214,41.2537117 11.1566709,40.8197612 C10.7227204,40.3858107 10.0210512,40.3797133 9.579625,40.8060571 L9.334375,41.0513071 C9.28101529,40.8642428 9.25264404,40.67094 9.25,40.4764321 C9.25,39.2337914 10.2573593,38.2264321 11.5,38.2264321 C12.7426407,38.2264321 13.75,39.2337914 13.75,40.4764321 C13.75,41.7190728 12.7426407,42.7264321 11.5,42.7264321 L11.5,42.7264321 Z" id="Shape" fill="#FFFFFF" fill-rule="nonzero"></path>
        </g>
    </g>
</svg>