<?xml version="1.0" encoding="UTF-8"?>
<svg width="144px" height="144px" viewBox="0 0 144 144" version="1.1" xmlns="http://www.w3.org/2000/svg" xmlns:xlink="http://www.w3.org/1999/xlink">
    <!-- Generator: Sketch 55.1 (78136) - https://sketchapp.com -->
    <title>UI logout enti 2</title>
    <desc>Created with Sketch.</desc>
    <g id="UI-logout-enti-2" stroke="none" stroke-width="1" fill="none" fill-rule="evenodd" opacity="0.291317894">
        <g id="exit" transform="translate(6.000000, 5.000000)" fill="#000000" fill-rule="nonzero">
            <path d="M130.783333,0 L73.15,0 C71.9258458,0 70.9333333,0.9925125 70.9333333,2.21666667 L70.9333333,35.4666667 C70.9333333,36.6908208 71.9258458,37.6833333 73.15,37.6833333 C74.3741542,37.6833333 75.3666667,36.6908208 75.3666667,35.4666667 L75.3666667,4.43333333 L128.566667,4.43333333 L128.566667,128.566667 L2.21666667,128.566667 C0.9925125,128.566667 0,129.559179 0,130.783333 C0,132.007487 0.9925125,133 2.21666667,133 L130.783333,133 C132.007487,133 133,132.007487 133,130.783333 L133,2.21666667 C133,0.9925125 132.007487,0 130.783333,0 Z" id="Path"></path>
            <path d="M60.9821751,83.2197028 L75.7268269,75.7126552 C79.5430113,73.7411354 81.0838207,69.0676248 79.1918423,65.2023425 C78.2786363,63.3303185 76.6522572,61.9064431 74.6799877,61.2514995 C72.7318889,60.5979493 70.6032049,60.7587589 68.7745702,61.6974186 L60.3287341,65.9893897 L57.4571498,61.1311013 C65.6354418,59.171287 70.6812733,50.9315385 68.727618,42.7274636 C66.7739628,34.5233887 58.5601093,29.4616498 50.3818172,31.4214641 C42.2035252,33.3812784 37.1576937,41.6210269 39.111349,49.8251018 C39.2722088,50.5003905 39.4789095,51.1642526 39.7295064,51.8113926 L21.5490106,59.5168743 C19.1861213,60.4446647 17.421386,62.4685799 16.8193424,64.9414799 L13.1320681,79.9243609 C12.0971754,84.105967 14.6081447,88.3444278 18.7641073,89.4313556 C20.746934,89.9438838 22.8520031,89.6345275 24.6050697,88.5729614 C26.3970317,87.4996899 27.6841882,85.7491788 28.1767694,83.714673 L30.8838821,72.6603391 L36.1669749,70.461958 L33.3109487,86.425861 L22.0535382,99.0810444 L12.8564671,90.9073477 C9.67677653,88.0718598 4.80736304,88.3591989 1.98078617,91.5489138 C1.95244816,91.5806855 1.92438798,91.6130147 1.89688345,91.6453438 C-0.893298537,94.9142093 -0.568522798,99.8207127 2.62811505,102.690759 L17.3705443,115.80078 C20.4704996,118.441736 25.0634786,118.286222 27.978959,115.441815 L42.1212894,101.072073 L53.4164839,107.954834 L61.6245031,124.643356 C62.9149935,127.309673 65.6109933,129.001936 68.5656469,128.99999 C69.7739015,129.001378 70.9654868,128.714875 72.0417752,128.163887 C75.8593487,126.192367 77.3996025,121.516627 75.5045681,117.651344 L66.2874937,98.9227432 C65.6329414,97.5905599 64.6138846,96.4729752 63.3492318,95.7009778 L49.6914257,87.373439 L51.1516663,80.7024896 C53.3373042,83.8933193 57.5393855,84.9693778 60.9821751,83.2197028 Z M50.0403721,71.9201134 C49.1027176,72.0346589 48.3395363,72.7314074 48.1378364,73.6569682 L45.0106544,87.9754298 C44.8078432,88.9051711 45.2156882,89.8616675 46.0263773,90.3566377 L61.0421849,99.5113563 C61.5839409,99.8455169 62.0209573,100.325995 62.3023926,100.898165 L71.5172444,119.626766 C72.3409912,121.298126 71.6825494,123.323435 70.0347779,124.186288 L70.0347779,124.186288 C68.3961745,124.978352 66.427239,124.306687 65.6096042,122.676852 L57.110426,105.410866 C56.924562,105.030441 56.6336807,104.711888 56.2725101,104.492272 L42.9236438,96.3520197 C42.0429431,95.8160807 40.9105343,95.9571026 40.1876374,96.6931478 L24.8095479,112.320382 C23.5762891,113.531331 21.6259677,113.59794 20.3132514,112.474224 L5.57082217,99.364203 C4.18142656,98.1145148 4.04223696,95.9802346 5.2574372,94.559425 C6.42596308,93.1865516 8.48241306,93.0237912 9.8509719,94.1957222 C9.86903043,94.2113294 9.88708896,94.2269366 9.90486967,94.2428224 L20.7577691,103.890282 C21.6737534,104.704641 23.0737063,104.622982 23.8893963,103.707455 L37.0426748,88.9252374 C37.3160531,88.617832 37.4991389,88.240473 37.5716508,87.8349653 L41.2567025,67.2335039 C41.4689597,66.020604 40.6607709,64.8648375 39.4516828,64.6521899 C39.0360588,64.5788919 38.6082105,64.6259921 38.2184241,64.7876378 L28.141208,68.9815067 C27.4883226,69.2532386 27.0029649,69.8201133 26.834326,70.5087795 L23.8493897,82.6466968 C23.6393551,83.5257148 23.0848192,84.2829411 22.3113585,84.7469757 C21.5740147,85.1976326 20.6858128,85.328064 19.850953,85.1081701 C18.0573241,84.6324302 16.9807579,82.7960797 17.437222,80.992337 L21.1244962,66.0049969 C21.3920403,64.9242005 22.1699463,64.0432316 23.2070616,63.6460849 L40.9033109,56.1546444 L43.6170914,57.3341004 C44.7456107,57.81848 46.0519371,57.2934103 46.5347944,56.1613332 C46.8804069,55.351154 46.7176023,54.4124943 46.119726,53.7667478 C44.2027435,51.7344716 43.135901,49.0419564 43.1392349,46.2440929 C43.2300832,40.3267468 48.0856055,35.6039063 53.9840775,35.6950411 C59.8825494,35.7861758 64.5908252,40.6570056 64.4999769,46.574073 C64.4102399,52.4273183 59.6541785,57.1250758 53.8184946,57.1245184 C52.5910702,57.1234036 51.5950727,58.1208689 51.5939614,59.3521629 C51.5936836,59.7529327 51.7009235,60.1464563 51.904846,60.4912075 L57.4368686,69.8555081 C57.8722182,70.5840284 58.6795734,71.0040284 59.5238792,70.941321 L60.1528717,70.8922699 C60.4418082,70.8685805 60.7232435,70.7891512 60.9818972,70.6581624 L70.7812898,65.6794759 C71.5528058,65.2803784 72.4532319,65.2134905 73.275034,65.4944195 C74.1171172,65.7761846 74.8111205,66.3848642 75.2020182,67.1844528 C76.0310437,68.8580428 75.3706571,70.8892042 73.7173291,71.7506642 L58.9726773,79.2443343 C57.3310179,80.0311027 55.3637493,79.3524696 54.5519488,77.719291 L52.3004667,73.1463909 C51.8917883,72.2893902 50.9791379,71.7941413 50.0403721,71.9201134 Z" id="Shape"></path>
            <path d="M116.355872,66.4176583 L107.555744,57.6177045 C106.681781,56.773459 105.28916,56.7976588 104.444898,57.6716043 C103.621536,58.5240998 103.621536,59.8757177 104.444898,60.7284882 L109.489572,65.7730617 L86.2000321,65.7730617 C84.9850644,65.7730617 84,66.7581065 84,67.9730501 C84,69.1879938 84.9850644,70.1730386 86.2000321,70.1730386 L109.489572,70.1730386 L104.444898,75.2176121 C103.570935,76.0618576 103.546735,77.4544503 104.390997,78.3283957 C105.23526,79.2023412 106.62788,79.226541 107.501843,78.3822955 C107.519993,78.3646956 107.538143,78.3465456 107.555744,78.3283957 L116.355872,69.528442 C117.214709,68.6693465 117.214709,67.2767538 116.355872,66.4176583 Z" id="Path"></path>
            <path d="M73.5,82 C72.119375,82 71,82.995 71,84.2222222 L71,99.7777778 C71,101.005 72.119375,102 73.5,102 C74.880625,102 76,101.005 76,99.7777778 L76,84.2222222 C76,82.995 74.880625,82 73.5,82 Z" id="Path"></path>
            <path d="M73.5,50 C72.119375,50 71,51.04475 71,52.3333333 L71,54.6666667 C71,55.95525 72.119375,57 73.5,57 C74.880625,57 76,55.95525 76,54.6666667 L76,52.3333333 C76,51.04475 74.880625,50 73.5,50 Z" id="Path"></path>
        </g>
    </g>
</svg>