<?xml version="1.0" encoding="UTF-8"?>
<svg width="144px" height="127px" viewBox="0 0 144 127" version="1.1" xmlns="http://www.w3.org/2000/svg" xmlns:xlink="http://www.w3.org/1999/xlink">
    <!-- Generator: Sketch 55.1 (78136) - https://sketchapp.com -->
    <title>UI profilo DE 5</title>
    <desc>Created with Sketch.</desc>
    <g id="UI-profilo-DE-5" stroke="none" stroke-width="1" fill="none" fill-rule="evenodd">
        <g id="file" transform="translate(26.909449, 1.500000)" fill="#3F556D" fill-rule="nonzero">
            <path d="M72.196959,38.5 L20.9841433,38.5 C19.3862471,38.5 18.0905512,39.6192442 18.0905512,41 C18.0905512,42.3807558 19.3860057,43.5 20.9841433,43.5 L72.196959,43.5 C73.7950966,43.5 75.0905512,42.3805472 75.0905512,41 C75.0905512,39.6192442 73.7950966,38.5 72.196959,38.5 Z" id="Path"></path>
            <path d="M72.196959,56.5 L20.9841433,56.5 C19.3862471,56.5 18.0905512,57.6194528 18.0905512,59 C18.0905512,60.3807558 19.3860057,61.5 20.9841433,61.5 L72.196959,61.5 C73.7950966,61.5 75.0905512,60.3805472 75.0905512,59 C75.0905512,57.6194528 73.7950966,56.5 72.196959,56.5 Z" id="Path"></path>
            <path d="M92.0843112,24.9885705 C92.0646615,24.2764512 91.7785432,23.5813773 91.2482418,23.057231 L69.2765569,1.3503765 C68.7551217,0.826230183 68.0304803,0.5 67.2277194,0.5 L6.1404926,0.5 C2.80484145,0.5 0.0905511811,3.18110074 0.0905511811,6.47725664 L0.0917493317,77.3466208 C0.0917493317,77.3717155 0.0948645231,77.3956264 0.0955834134,77.420721 C0.134882752,78.85656 0.88708167,80.1579296 2.12860528,80.9195279 L12.0377896,86.9959793 C15.308501,89.0009455 19.3716692,89.0009455 22.6419013,86.9957426 L29.4428435,82.8257728 C30.84444,81.9661633 32.585832,81.9664001 33.9874286,82.825536 L40.7883707,86.9957426 C42.4236066,87.9988176 44.256777,88.5 46.0904266,88.5 C47.9238366,88.5 49.7577258,87.9985808 51.3924824,86.9957426 L58.1934246,82.825536 C59.5950211,81.9664001 61.3364131,81.9664001 62.7380097,82.825536 L69.5389518,86.9957426 C72.8087047,89.001419 76.8716332,89.001419 80.1430635,86.9957426 L90.0529668,80.9192912 C91.2940111,80.1581663 92.0459704,78.85656 92.0855094,77.4209578 C92.0859886,77.3963366 92.0893434,77.3719522 92.0893434,77.3468576 L92.0905512,25.0636176 C92.0905512,25.0361556 92.0864679,25.0131916 92.0843112,24.9885705 Z M70.0996863,10.1912618 L70.0999259,10.1912618 L82.281283,22.2257938 L70.4020995,22.2257938 C70.2355566,22.2257938 70.0996863,22.0915612 70.0996863,21.9270257 L70.0996863,10.1912618 Z M86.3442115,76.5132898 L77.1136597,82.1733124 C75.7120631,83.0329218 73.9706711,83.0326851 72.5690746,82.1735491 L65.7681324,78.0031058 C62.497421,75.9981396 58.4342529,75.9983764 55.1640207,78.0033426 L48.3630785,82.1735491 C46.961482,83.0326851 45.22009,83.0326851 43.8184935,82.1735491 L37.0175513,78.0033426 C33.7475588,75.9976661 29.6843906,75.9976661 26.4134396,78.0033426 L19.6124974,82.1735491 C18.2109009,83.0326851 16.4695089,83.0326851 15.0679124,82.1735491 L5.83736051,76.5132898 L5.83592273,6.47749338 C5.83592273,6.31153739 5.97275152,6.17635783 6.1404926,6.17635783 L64.3545544,6.17635783 L64.3545544,21.9272624 C64.3545544,25.2217611 67.0674069,27.9021516 70.4023391,27.9021516 L86.3454097,27.9021516 L86.3442115,76.5132898 Z" id="Shape"></path>
            <path d="M92.0905512,94.8306821 C92.0905512,94.823291 92.0888738,94.8161384 92.0888738,94.8087473 C92.0888738,94.8013562 92.0905512,94.7942036 92.0905512,94.7868125 C92.0905512,93.2320644 91.2415482,91.7960504 89.8754275,91.0402535 C88.5095464,90.2849335 86.8364619,90.3242731 85.5086817,91.1442054 L77.016256,96.3880528 C75.674817,97.2160914 74.0079628,97.2160914 72.667003,96.3882912 L65.6705766,92.0678512 C62.4602768,90.0848977 58.4716643,90.0848977 55.2618437,92.0678512 L48.2654173,96.3880528 C46.9239783,97.2160914 45.2573637,97.2160914 43.9159247,96.3882912 L36.9194983,92.0678512 C33.7094381,90.0853745 29.720586,90.0853745 26.5107654,92.0678512 L19.5148182,96.3880528 C18.1733792,97.2160914 16.506525,97.2163299 15.1655652,96.3880528 L6.67337921,91.1442054 C5.345599,90.3245115 3.67251447,90.2839798 2.30639373,91.0402535 C0.940512632,91.7962888 0.0917493224,93.231826 0.0917493224,94.7868125 C0.0917493224,94.7942036 0.0929474637,94.8013562 0.0929474637,94.8087473 C0.0929474637,94.8161384 0.0917493224,94.823291 0.0917493224,94.8306821 L0.0905511811,116.480328 C0.0905511811,119.799636 2.80434127,122.5 6.14044595,122.5 L86.0406564,122.5 C89.3762818,122.5 92.0905512,119.799874 92.0905512,116.48009 L92.0905512,94.8306821 Z M86.0413753,116.783601 L6.14164409,116.783601 C5.97390431,116.783601 5.83707657,116.647462 5.83707657,116.480567 L5.83803508,97.3555682 L12.136664,101.24518 C15.3472035,103.226942 19.3355763,103.226942 22.5451573,101.244942 L29.5411044,96.9245017 C30.8823038,96.0962246 32.5486787,96.096463 33.890597,96.9245017 L40.8865442,101.24518 C42.4918139,102.236061 44.2914222,102.73174 46.0910304,102.73174 C47.8903991,102.73174 49.690247,102.236061 51.2955167,101.244942 L58.2914639,96.9245017 C59.6326632,96.0962246 61.2990382,96.0959862 62.6409565,96.9245017 L69.6373829,101.24518 C72.8484016,103.227418 76.8362952,103.226942 80.0458761,101.24518 L86.344505,97.3555682 L86.3454648,116.480328 C86.3454648,116.647462 86.2093547,116.783601 86.0413753,116.783601 Z" id="Shape"></path>
        </g>
    </g>
</svg>