<?xml version="1.0" encoding="UTF-8"?>
<svg width="144px" height="138px" viewBox="0 0 144 138" version="1.1" xmlns="http://www.w3.org/2000/svg" xmlns:xlink="http://www.w3.org/1999/xlink">
    <!-- Generator: Sketch 55.1 (78136) - https://sketchapp.com -->
    <title>UI profilo DE 4</title>
    <desc>Created with Sketch.</desc>
    <g id="UI-profilo-DE-4" stroke="none" stroke-width="1" fill="none" fill-rule="evenodd">
        <path d="M142.703354,104.852684 C141.536301,101.03578 139.437854,97.5671247 136.595415,94.7577381 C132.068335,90.2199544 125.907844,87.6764497 119.487897,87.6939116 C116.206863,87.6955589 112.959872,88.3591105 109.94259,89.6443711 L86.1454252,65.9225655 L117.742772,34.6624973 L125.225658,34.4516368 C126.130942,34.4242908 126.958885,33.9366759 127.420286,33.1601163 L138.12901,15.2106167 C138.751372,14.1747645 138.587766,12.8496381 137.73239,11.9949942 L128.477937,2.76984753 C127.620578,1.91718041 126.291242,1.75409299 125.252099,2.3744841 L107.245578,13.0492966 C106.466551,13.5092361 105.977387,14.3345572 105.949955,15.2369743 L105.738424,22.6698067 L74.2204015,54.0353052 L52.5914228,32.4748197 C54.8623995,19.3490834 46.0290241,6.87339043 32.86159,4.60960534 C26.7605919,3.56057438 20.4880559,4.88306505 15.3356392,8.3049355 C14.1259499,9.12037257 13.8083239,10.7588245 14.6263514,11.964683 C14.8563907,12.3037071 15.1624487,12.5847446 15.5207282,12.785721 L27.5250758,19.4541841 C30.1692052,20.9565652 30.6980311,25.4373507 28.5562863,29.2328396 C26.4145415,33.0283284 22.3161409,34.978788 19.6455701,33.5027646 L8.51378524,27.4932405 C7.23435711,26.7914704 5.62639591,27.2566814 4.92272696,28.5320579 C4.68012809,28.9712408 4.56841362,29.4703871 4.6008042,29.9708513 C5.43734065,43.2642876 16.9264135,53.3645052 30.2620803,52.5306179 C33.0172632,52.3583053 35.7225381,51.7171576 38.2605718,50.6351797 L57.9328948,70.2452057 L49.418798,78.7323406 L47.4885835,76.8345961 C45.3517964,74.7961682 41.9838366,74.7961682 39.8470495,76.8345961 L37.20292,79.4703523 C35.1884239,81.4254244 35.0608447,84.6097474 36.9120658,86.7186818 L5.63201468,117.846962 C3.5219994,119.859692 3.44829429,123.196888 5.46741762,125.300222 C5.52096125,125.356232 5.57582693,125.410924 5.63201468,125.464298 L14.5691721,134.373153 C16.5882955,136.476487 19.9360939,136.549959 22.0461091,134.537229 C22.1022969,134.483855 22.1571626,134.429163 22.2107062,134.373153 L53.5171986,103.192158 C55.6328327,105.037517 58.8272715,104.910341 60.7885545,102.902225 L63.432684,100.266469 C65.5426992,98.2537392 65.6164044,94.9165424 63.597281,92.813209 C63.5437374,92.7571992 63.4888717,92.7025072 63.432684,92.6491332 L61.5024695,90.7250312 L69.9636836,82.1061085 L95.6117391,107.672943 C93.3959586,120.808234 102.281556,133.246697 115.458575,135.455461 C123.263384,136.763784 131.216594,134.184038 136.754393,128.548132 C137.72545,127.460883 137.628939,125.795085 136.538235,124.826774 C136.256636,124.576707 135.924467,124.389568 135.564535,124.278207 L120.678086,120.298215 C119.219188,119.830698 118.064364,118.708855 117.558013,117.267096 C116.784605,115.279406 116.69173,113.092717 117.2936,111.046711 C118.404135,106.908574 121.920827,103.956527 124.882252,104.747254 L139.610053,108.700888 C139.846702,108.735153 140.087318,108.735153 140.323968,108.700888 C141.784188,108.71868 142.982309,107.553016 143,106.09742 C143.004784,105.664497 142.903316,105.236846 142.703354,104.852684 Z M109.897187,25.5813953 C110.368574,25.1071948 110.640276,24.4704578 110.656644,23.8023256 L110.866149,16.8168605 L125.71484,8 L132,14.2790698 L123.357905,29.0872093 L116.234724,29.3488372 C115.565943,29.365189 114.928589,29.6366279 114.453928,30.1075581 L82.5043647,62 L78,57.5 L109.897187,25.5813953 Z M18.2216393,131 L9,121.844139 L40.9665574,90 L45.5908197,94.6182056 L50,99.1827112 L18.2216393,131 Z M56.5057143,99 L53.1114286,95.6138614 L51.8,94.3154173 L41,83.5459689 L43.5714286,81 L59,96.4794908 L56.5057143,99 Z M59.4098066,88 L53,82.0232521 L61.3561041,74 L67,79.0976138 L59.4098066,88 Z M125.489831,99.0201486 C124.710233,98.8100405 123.906335,98.7036692 123.099153,98.7039985 C117.371706,99.1676854 112.644206,103.381703 111.513559,109.03157 C110.617055,112.204268 110.792415,115.585428 112.012712,118.647803 C113.138761,121.594915 115.580996,123.839252 118.60678,124.707347 L128.379661,127.341932 C119.467818,132.667415 107.938379,129.739733 102.627987,120.802893 C100.133867,116.605671 99.3637924,111.600948 100.479661,106.844865 C100.67965,105.960303 100.411684,105.034576 99.770339,104.394701 L40.5550847,44.9584748 C39.7144068,44.1664528 38.4570021,44.0169402 37.4550847,44.589633 C34.7422564,46.0251522 31.7213983,46.7760088 28.6542373,46.7763381 C20.7502225,46.7832539 13.6901695,41.8206847 11,34.3674451 L16.9898305,37.7133674 C18.3861441,38.4974857 19.9607733,38.9058463 21.5610169,38.8989305 C26.4251271,38.6180179 30.7756356,35.7697027 32.9889831,31.4167105 C36.5618644,25.0146702 35.1694915,17.400721 29.9152542,14.4499864 L22.270339,10.1029219 C32.0399364,6.60320577 42.788464,11.7087012 46.2782627,21.505733 C47.4893644,24.9063229 47.7005191,28.5842029 46.8864407,32.1017025 C46.6864513,32.9862642 46.9544174,33.9119913 47.5957627,34.5518661 L106.942373,94.0407839 C107.753496,94.8551999 108.998093,95.0475245 110.016102,94.5150091 C112.729258,93.0804779 115.749788,92.3299506 118.816949,92.328304 C125.46947,92.3230348 131.627108,95.8517315 135,101.602041 L125.489831,99.0201486 Z" id="Shape" fill="#3F556D" fill-rule="nonzero"></path>
    </g>
</svg>