<?xml version="1.0" encoding="UTF-8"?>
<svg width="144px" height="141px" viewBox="0 0 144 141" version="1.1" xmlns="http://www.w3.org/2000/svg" xmlns:xlink="http://www.w3.org/1999/xlink">
    <!-- Generator: Sketch 55.1 (78136) - https://sketchapp.com -->
    <title>UI servizi DE 19</title>
    <desc>Created with Sketch.</desc>
    <g id="UI-servizi-DE-19" stroke="none" stroke-width="1" fill="none" fill-rule="evenodd">
        <g id="team" transform="translate(5.000000, 4.000000)" fill="#FFFFFF" fill-rule="nonzero">
            <path d="M98.4347826,62 C92.08409,62 86.9347826,56.8515925 86.9347826,50.5 C86.9347826,44.1493075 92.08409,39 98.4347826,39 C104.786375,39 109.934783,44.1493075 109.934783,50.5 C109.927583,56.8488927 104.783675,61.9928007 98.4347826,62 L98.4347826,62 Z M98.4347825,43.6003599 C94.624547,43.6003599 91.5351426,46.6897646 91.5351426,50.5 C91.5351426,54.3120354 94.624547,57.3996401 98.4347825,57.3996401 C102.246818,57.3996401 105.334423,54.3120354 105.334423,50.5 C105.334423,46.6897646 102.246818,43.6003599 98.4347825,43.6003599 L98.4347825,43.6003599 Z" id="Shape"></path>
            <path d="M37.4347826,62 C31.0840902,62 25.9347826,56.8515925 25.9347826,50.5 C25.9347826,44.1493075 31.0840902,39 37.4347826,39 C43.7863749,39 48.9347826,44.1493075 48.9347826,50.5 C48.9275833,56.8488927 43.7836753,61.9928007 37.4347826,62 Z M37.4347826,43.6003599 C33.6245472,43.6003599 30.5351426,46.6897646 30.5351426,50.5 C30.5351426,54.3120354 33.6245472,57.3996401 37.4347826,57.3996401 C41.246818,57.3996401 44.3344227,54.3120354 44.3344227,50.5 C44.3344227,46.6897646 41.246818,43.6003599 37.4347826,43.6003599 Z" id="Shape"></path>
            <path d="M111.981272,75.7731389 L132.973963,56.7080504 C135.429601,54.4243372 135.601927,50.59462 133.359972,48.1008707 C131.118017,45.6071211 127.288945,45.3669569 124.754037,47.5620072 L108.942312,61.6 L86.7149096,61.6 L70.1406444,81.840086 L70.1406444,26.4 L92.1621183,26.4 L92.1621183,35.2 L128.446111,35.2 L123.16175,21.9995696 L128.446111,8.80000006 L103.172855,8.80000006 L103.172855,0 L65.7368666,0 L65.7368666,81.840086 L49.1643248,61.6 L26.936922,61.6 L11.1251973,47.5594247 C8.58856614,45.3600705 4.75518556,45.5985132 2.51150796,48.0939842 C0.266106784,50.5903158 0.439293841,54.4226157 2.90096334,56.7080504 L23.8971004,75.7731389 L23.8971004,127.59957 L1.87562681,127.59957 L1.87562681,132 L134.001884,132 L134.001884,127.59957 L111.981272,127.59957 L111.981272,75.7731389 Z M103.172855,13.1995695 L121.940824,13.1995695 L118.418491,21.9995696 L121.940824,30.7995696 L96.5658959,30.7995696 L96.5658959,26.4 L103.172855,26.4 L103.172855,13.1995695 Z M70.1406444,4.39956965 L98.7682156,4.39956965 L98.7682156,21.9995696 L70.1406444,21.9995696 L70.1406444,4.39956965 Z M45.9177127,127.59957 L39.3116152,127.59957 L39.3116152,96.8 L34.9069758,96.8 L34.9069758,127.59957 L28.3008783,127.59957 L28.3008783,73.8277217 L5.86582347,53.4602367 C5.23425063,52.8731684 5.12223895,51.9150933 5.59958066,51.1963219 C5.87874772,50.7779712 6.32507084,50.5007922 6.82395317,50.436232 C7.32283551,50.3708109 7.82602592,50.5248949 8.20255705,50.8580259 L25.2627801,65.9995696 L47.0766015,65.9995696 L63.4509691,85.9943266 C64.0859885,86.7518341 63.9860397,87.8794874 63.2286691,88.5147609 C62.4695754,89.1483127 61.3399818,89.0484594 60.705824,88.2909518 L45.9177127,71.0602368 L45.9177127,127.59957 Z M85.5560208,127.59957 L50.3223521,127.59957 L50.3223521,82.9401937 L57.3696026,91.1462389 C59.4125213,93.5237798 62.9098671,94.0015259 65.51629,92.2592585 C65.5981447,92.204167 65.668798,92.1344419 65.7489295,92.0741855 L65.7489295,109.999569 L70.1527073,109.999569 L70.1527073,92.0784897 C70.2354236,92.1413284 70.3086618,92.2153576 70.3965477,92.2730313 C73.0012475,94.0032476 76.4882537,93.5237798 78.5268641,91.1531253 L85.5560208,82.9401937 L85.5560208,127.59957 Z M107.576633,127.59957 L100.970535,127.59957 L100.970535,96.8 L96.5658959,96.8 L96.5658959,127.59957 L89.9597984,127.59957 L89.9597984,71.0602368 L75.1734102,88.2978382 C74.5814721,88.9830383 73.5699216,89.1181845 72.8194441,88.6120317 C72.3989699,88.3357136 72.1163561,87.8923995 72.0439794,87.3948548 C71.9681562,86.8964492 72.1068781,86.3894357 72.4274037,86.000352 L88.8017711,65.9995696 L110.616454,65.9995696 L127.673231,50.8511395 C128.047177,50.5128436 128.552952,50.3570381 129.051835,50.4267631 C129.558472,50.4904628 130.009964,50.7736672 130.287409,51.2014868 C130.761304,51.916815 130.644984,52.870586 130.011688,53.4516288 L107.576633,73.8277217 L107.576633,127.59957 Z" id="Shape"></path>
        </g>
    </g>
</svg>