<?xml version="1.0" encoding="UTF-8"?>
<svg width="144px" height="141px" viewBox="0 0 144 141" version="1.1" xmlns="http://www.w3.org/2000/svg" xmlns:xlink="http://www.w3.org/1999/xlink">
    <!-- Generator: Sketch 55.1 (78136) - https://sketchapp.com -->
    <title>UI servizi DE 17</title>
    <desc>Created with Sketch.</desc>
    <g id="UI-servizi-DE-17" stroke="none" stroke-width="1" fill="none" fill-rule="evenodd">
        <g id="start-(1)" transform="translate(18.000000, 4.000000)" fill="#FFFFFF" fill-rule="nonzero">
            <path d="M55,43.4 C42.3175964,43.4 32,53.7175964 32,66.4 C32,70.8652292 33.2804739,75.0362477 35.4913513,78.5682931 C35.558585,78.6987164 35.6394677,78.8238318 35.7309662,78.9433865 C39.8398061,85.2337839 46.9420634,89.4 55,89.4 C67.6824036,89.4 78,79.0821509 78,66.4 C78,53.7178491 67.6824036,43.4 55,43.4 Z M38.3907425,73.1842872 C37.5321223,71.0899314 37.0549145,68.8001934 37.0549145,66.4 C37.0549145,56.5050156 45.1050156,48.4551673 55,48.4551673 C61.0548266,48.4551673 66.4145677,51.4723438 69.6660513,56.0791178 L55.7843092,69.9608598 L50.4864939,64.6632973 C49.4992197,63.6762759 47.8992593,63.6765286 46.9117324,64.6632973 L38.3907425,73.1842872 Z M55,84.3448327 C49.3725878,84.3448327 44.3442129,81.738894 41.0515297,77.6727702 L48.6992395,70.0250604 L53.9970548,75.322623 C54.984329,76.3096444 56.5842894,76.3093916 57.5718163,75.322623 L72.0579036,60.8365357 C72.6311596,62.5891622 72.9450855,64.4580575 72.9450855,66.3997472 C72.9450855,76.2947316 64.8947316,84.3448327 55,84.3448327 Z" id="Shape"></path>
            <path d="M93.186934,64.134859 C92.7867736,51.6315292 89.3035189,39.3697305 83.0512358,28.5276948 C76.394717,16.9848606 66.7870472,7.3755547 55.2669623,0.739077471 C54.482434,0.286974176 53.5173113,0.286974176 52.732783,0.739077471 C41.2129528,7.3755547 31.605283,16.9848606 24.9485094,28.5274389 C18.6962264,39.3694746 15.2129717,51.6312733 14.8128113,64.1346032 C5.88345283,67.9837497 0,76.8405735 0,86.7144378 L0,104.790638 C0,106.203749 1.14062264,107.34923 2.54716981,107.34923 L39.9755377,107.34923 C40.5244528,115.045221 43.8788208,122.416526 49.3702642,127.851488 L52.2121415,130.664149 C52.7078208,131.154631 53.353783,131.4 54,131.4 C54.646217,131.4 55.2919245,131.154631 55.7878585,130.664149 L58.6297358,127.851488 C64.1211792,122.416526 67.4755472,115.045477 68.0244623,107.349486 L75.9056604,107.349486 L75.9056604,120.554894 C75.9056604,121.968005 77.046283,123.113486 78.4528302,123.113486 C79.8593774,123.113486 81,121.968005 81,120.554894 L81,107.34923 L105.45283,107.34923 C106.859377,107.34923 108,106.203749 108,104.790638 L108,86.7146937 C108,76.8405735 102.116292,67.9837497 93.186934,64.134859 Z M54,5.92585619 C62.0088113,10.7664573 68.8550943,17.0999972 74.2688491,24.4508335 L33.7311509,24.4508335 C39.1449057,17.0999972 45.9911887,10.7664573 54,5.92585619 Z M5.09433962,102.232045 L5.09433962,86.7144378 C5.09433962,79.6795878 8.86669811,73.296667 14.7735849,69.8676414 L14.7735849,99.673453 C14.7735849,100.570496 14.9289623,101.431206 15.2116981,102.232045 L5.09433962,102.232045 Z M55.0542736,124.206261 L54,125.249655 L52.9457264,124.206261 C48.4196604,119.726933 45.6233774,113.681491 45.0856698,107.34923 L62.9143302,107.34923 C62.3763679,113.681491 59.5800849,119.726933 55.0542736,124.206261 Z M88.1320755,99.673453 C88.1320755,101.084261 86.9894151,102.232045 85.5849057,102.232045 L22.4150943,102.232045 C21.0105849,102.232045 19.8679245,101.084261 19.8679245,99.673453 L19.8679245,66.5621957 C19.8679245,57.2975323 21.6896604,48.2697945 25.071283,39.9303181 L36.6046132,39.9303181 C38.0111604,39.9303181 39.151783,38.7848362 39.151783,37.3717256 C39.151783,35.958615 38.0111604,34.8131331 36.6046132,34.8131331 L27.3853868,34.8131331 C28.280717,33.0241652 29.2514434,31.2743438 30.2934906,29.5680185 L77.7065094,29.5680185 C84.4017453,40.5326108 88.1320755,53.3045928 88.1320755,66.5621957 L88.1320755,99.673453 Z M102.90566,102.232045 L92.7883019,102.232045 C93.0710377,101.431206 93.2264151,100.570496 93.2264151,99.673453 L93.2264151,69.8678972 C99.1333019,73.296667 102.90566,79.6795878 102.90566,86.7146937 L102.90566,102.232045 Z" id="Shape"></path>
            <path d="M48.1207,36.279 C47.563,35.721 46.789,35.4 46,35.4 C45.211,35.4 44.437,35.721 43.879,36.279 C43.321,36.837 43,37.611 43,38.4 C43,39.189 43.3207,39.963 43.879,40.521 C44.4373,41.079 45.211,41.4 46,41.4 C46.789,41.4 47.563,41.079 48.1207,40.521 C48.6787,39.963 49,39.189 49,38.4 C49,37.611 48.679,36.837 48.1207,36.279 Z" id="Path"></path>
            <path d="M30,115.4 C28.3434,115.4 27,116.457434 27,117.761926 L27,125.038074 C27,126.342566 28.3434,127.4 30,127.4 C31.6566,127.4 33,126.342566 33,125.038074 L33,117.761926 C33,116.457434 31.6566,115.4 30,115.4 Z" id="Path"></path>
            <path d="M81.1207,127.279 C80.563,126.721 79.789,126.4 79,126.4 C78.211,126.4 77.437,126.721 76.879,127.279 C76.321,127.837 76,128.611 76,129.4 C76,130.189 76.3207,130.963 76.879,131.521 C77.4373,132.079 78.211,132.4 79,132.4 C79.789,132.4 80.563,132.079 81.1207,131.521 C81.6787,130.963 82,130.189 82,129.4 C82,128.611 81.679,127.837 81.1207,127.279 Z" id="Path"></path>
        </g>
    </g>
</svg>