<?xml version="1.0" encoding="UTF-8"?>
<svg width="144px" height="141px" viewBox="0 0 144 141" version="1.1" xmlns="http://www.w3.org/2000/svg" xmlns:xlink="http://www.w3.org/1999/xlink">
    <!-- Generator: Sketch 55.1 (78136) - https://sketchapp.com -->
    <title>UI dashboard enti DE 2 Copy 4</title>
    <desc>Created with Sketch.</desc>
    <g id="UI-dashboard-enti-DE-2-Copy-4" stroke="none" stroke-width="1" fill="none" fill-rule="evenodd">
        <g id="rejected-(1)" transform="translate(10.000000, 7.000000)" fill="#FFFFFF" fill-rule="nonzero">
            <path d="M112.182065,46.8289429 C111.881265,44.2702472 110.174435,42.1415197 107.864773,41.2532666 C110.540219,38.8622361 112.231296,35.3738057 112.231296,31.4924176 L112.231296,24.0406294 C112.231296,16.8501505 106.433881,11 99.3082192,11 C92.1825576,11 86.3851423,16.8501505 86.3851423,24.0406294 L86.3851423,31.4924176 C86.3851423,35.3738057 88.0762192,38.8622361 90.7516653,41.2532666 C88.4417576,42.1415197 86.7349269,44.2702472 86.434373,46.8289429 C79.2552961,54.3281742 75.3082192,64.1690057 75.3082192,74.6231194 L75.3082192,83.6549351 C75.3082192,84.6837787 76.1345576,85.5178822 77.154373,85.5178822 C78.1741884,85.5178822 79.0005269,84.6837787 79.0005269,83.6549351 L79.0005269,74.6231194 C79.0005269,66.551094 81.595973,58.8824587 86.3851423,52.5837106 L86.3851423,72.4772528 C86.3851423,76.0215716 87.7956038,79.2385086 90.0774499,81.5912865 L90.0774499,121.309815 L83.9551115,123.36924 C82.9877269,123.694635 82.4651423,124.74956 82.7876038,125.725744 C83.045573,126.506443 83.7658192,127 84.5387423,127 C84.7322192,127 84.9291423,126.968951 85.1228653,126.903872 L92.5074807,124.419943 C93.2614499,124.166333 93.7697576,123.454439 93.7697576,122.652627 L93.7697576,84.2570396 C95.4495115,85.0643166 97.327173,85.5178822 99.3082192,85.5178822 C101.289265,85.5178822 103.166927,85.064565 104.846681,84.2570396 L104.846681,122.652627 C104.846681,123.454439 105.354988,124.166333 106.108958,124.419943 L113.493573,126.903872 C113.687296,126.968951 113.884219,127 114.077696,127 C114.850865,127 115.570865,126.506195 115.828835,125.725744 C116.151296,124.74956 115.628711,123.694635 114.661327,123.36924 L108.538988,121.309815 L108.538988,81.5912865 C110.820835,79.2385086 112.231296,76.0215716 112.231296,72.4772528 L112.231296,52.5837106 C117.020465,58.8824587 119.615911,66.5508456 119.615911,74.6231194 L119.615911,83.6549351 C119.615911,84.6837787 120.44225,85.5178822 121.462065,85.5178822 C122.481881,85.5178822 123.308219,84.6837787 123.308219,83.6549351 L123.308219,74.6231194 C123.308219,64.1687573 119.361142,54.3281742 112.182065,46.8289429 Z M90.0774499,24.0406294 C90.0774499,18.9046085 94.2182499,14.7258941 99.3082192,14.7258941 C104.398188,14.7258941 108.538988,18.9046085 108.538988,24.0406294 L108.538988,24.6616117 L104.812465,24.6616117 C103.420958,23.0905264 101.428588,22.1776823 99.3082192,22.1776823 C97.1878499,22.1776823 95.1954807,23.0905264 93.803973,24.6616117 L90.0774499,24.6616117 L90.0774499,24.0406294 Z M90.0774499,31.4924176 L90.0774499,28.3875058 L94.7029269,28.3875058 C95.3188038,28.3875058 95.8943115,28.0775114 96.2369576,27.5611025 C96.9254499,26.5233168 98.0737576,25.9035764 99.3082192,25.9035764 C100.542681,25.9035764 101.690988,26.5230684 102.379481,27.5611025 C102.722373,28.0775114 103.297635,28.3875058 103.913511,28.3875058 L108.538988,28.3875058 L108.538988,31.4924176 C108.538988,36.6286868 104.398188,40.8071529 99.3082192,40.8071529 C94.2182499,40.8071529 90.0774499,36.6286868 90.0774499,31.4924176 Z M99.3084653,81.791988 C94.8506192,81.791988 91.1208961,78.5867255 90.2632961,74.3401998 L108.353388,74.3401998 C107.495788,78.5867255 103.766311,81.791988 99.3084653,81.791988 Z M108.538988,70.6143057 L90.0774499,70.6143057 L90.0774499,47.6392007 C90.0776961,45.9255378 91.4578807,44.533047 93.154373,44.533047 L105.462065,44.533047 C107.158558,44.533047 108.538742,45.9255378 108.538988,47.6374619 C108.538988,47.6394491 108.538988,70.6143057 108.538988,70.6143057 Z" id="Shape"></path>
            <path d="M50.4513377,41 C49.4257072,41 48.5942086,41.8322373 48.5942086,42.8587789 C48.5942086,45.9336949 46.0950082,48.4351156 43.0228215,48.4351156 L30.0229181,48.4351156 L30.0229181,47.8155227 C30.0229181,44.0573196 26.9683122,41 23.2134449,41 L10.8325845,41 C7.07771715,41 4.02311128,44.0573196 4.02311128,47.8155227 L4.02311128,87.4694728 C4.02311128,88.4960144 4.85460986,89.3282517 5.88024033,89.3282517 L7.73736939,89.3282517 L7.73736939,121.322546 L1.5786342,123.377364 C0.605498579,123.702031 0.0798072473,124.754595 0.403938172,125.728595 C0.663441005,126.507548 1.38796895,127 2.16548699,127 C2.36011411,127 2.55820788,126.96902 2.75308262,126.904087 L10.1815988,124.425715 C10.9400504,124.172673 11.4513799,123.462372 11.4513799,122.662354 L11.4513799,89.3282517 L22.5941542,89.3282517 L22.5941542,101.100518 C22.5941542,101.469548 22.7038486,101.830399 22.9096185,102.136973 L33.7369286,118.272166 L33.7369286,125.140725 C33.7369286,126.167267 34.5684271,127 35.5940576,127 C36.6196881,127 37.4511867,126.167267 37.4511867,125.140725 L37.4511867,117.70561 C37.4511867,117.33658 37.3414922,116.975729 37.1357224,116.669155 L26.3084123,100.533962 L26.3084123,89.3282517 L31.8797995,89.3282517 C32.90543,89.3282517 33.7369286,88.4960144 33.7369286,87.4694728 L33.7369286,74.9945879 C33.7369286,71.1602988 32.422824,67.4561242 30.0226704,64.4848041 L30.0226704,59.5877891 L35.5940576,59.5877891 C40.1338715,59.5877891 43.9204338,56.309151 44.7212279,51.9940577 C49.0324911,51.1925522 52.3082192,47.4026259 52.3082192,42.8587789 C52.3082192,41.8322373 51.4769682,41 50.4513377,41 Z M7.73736939,47.8155227 C7.73736939,46.1071809 9.12575907,44.7175578 10.8325845,44.7175578 L23.2134449,44.7175578 C24.9202703,44.7175578 26.30866,46.1071809 26.30866,47.8155227 L26.30866,48.4351156 L13.3087566,48.4351156 C12.2831261,48.4351156 11.4516275,49.2673529 11.4516275,50.2938946 C11.4516275,51.3204362 12.2831261,52.1526735 13.3087566,52.1526735 L26.30866,52.1526735 L26.30866,63.3053469 L7.73736939,63.3053469 L7.73736939,47.8155227 Z M30.0229181,74.9945879 L30.0229181,85.6106939 L7.73736939,85.6106939 L7.73736939,67.0229048 L27.2894717,67.0229048 C29.0557253,69.2990415 30.0229181,72.0983625 30.0229181,74.9945879 Z M35.5943052,55.8702313 L30.0229181,55.8702313 L30.0229181,52.1526735 L40.8462662,52.1526735 C40.0796433,54.3160443 38.0155063,55.8702313 35.5943052,55.8702313 Z" id="Shape"></path>
            <path d="M23.2686954,15.7400467 C23.2179335,15.6736933 23.1642001,15.60882 23.1032858,15.54814 C21.920162,14.2008467 20.4730763,13.1021933 18.8387906,12.33358 C20.0179525,11.0232867 20.7367906,9.29390667 20.7367906,7.4 C20.7367906,3.31964 17.4043335,0 13.3082192,0 C9.21210489,0 5.87964775,3.31964 5.87964775,7.4 C5.87964775,9.29390667 6.59848584,11.0232867 7.77764775,12.33358 C6.14336204,13.1021933 4.69627632,14.2008467 3.52008584,15.5419733 C3.45223823,15.60882 3.39850489,15.6736933 3.34774299,15.7400467 C1.45221918,17.99088 0.308219178,20.8892133 0.308219178,24.05 C0.308219178,31.1905067 6.13989537,37 13.3082192,37 C20.476543,37 26.3082192,31.1905067 26.3082192,24.05 C26.3082192,20.8892133 25.1642192,17.99088 23.2686954,15.7400467 Z M13.3082192,3.7 C15.3562763,3.7 17.0225049,5.35982 17.0225049,7.4 C17.0225049,9.44018 15.3562763,11.1 13.3082192,11.1 C11.260162,11.1 9.59393346,9.44018 9.59393346,7.4 C9.59393346,5.35982 11.260162,3.7 13.3082192,3.7 Z M13.3082192,14.8 C15.4570573,14.8 17.4362763,15.5328467 19.0113811,16.7582867 C17.3419335,17.8956667 15.3721239,18.50888 13.3082192,18.50888 C11.2443144,18.50888 9.27450489,17.8956667 7.60505727,16.7582867 C9.18016204,15.5328467 11.1593811,14.8 13.3082192,14.8 Z M13.3082192,33.3 C8.18795251,33.3 4.02250489,29.1503267 4.02250489,24.05 C4.02250489,22.4306333 4.44370489,20.9077133 5.1808668,19.5823733 C7.53077156,21.2865933 10.3484287,22.20888 13.3082192,22.20888 C16.2680097,22.20888 19.0859144,21.2865933 21.4355716,19.5823733 C22.1727335,20.9077133 22.5939335,22.4303867 22.5939335,24.05 C22.5939335,29.1503267 18.4284858,33.3 13.3082192,33.3 Z" id="Shape"></path>
        </g>
    </g>
</svg>