<?xml version="1.0" encoding="UTF-8"?>
<svg width="144px" height="141px" viewBox="0 0 144 141" version="1.1" xmlns="http://www.w3.org/2000/svg" xmlns:xlink="http://www.w3.org/1999/xlink">
    <!-- Generator: Sketch 55.1 (78136) - https://sketchapp.com -->
    <title>UI servizi DE 26</title>
    <desc>Created with Sketch.</desc>
    <g id="UI-servizi-DE-26" stroke="none" stroke-width="1" fill="none" fill-rule="evenodd">
        <g id="shutdown" transform="translate(21.000000, 20.000000)" fill="#FFFFFF" fill-rule="nonzero">
            <path d="M86.6320008,14.7880833 C86.6252675,14.78135 86.6252675,14.78135 86.6185342,14.78135 L86.6252675,14.7880833 C84.7180627,12.8808667 82.1804536,11.8287833 79.4846121,11.8287833 C76.7887706,11.8287833 74.2503198,12.8808667 72.3439567,14.7880833 C68.4184479,18.7338167 68.4184479,25.131325 72.3304901,29.0635917 C72.3304901,29.070325 72.3372234,29.070325 72.3439567,29.0770583 C78.0706209,34.7978667 81.2201179,42.4056917 81.2201179,50.5 C81.2201179,58.5943083 78.0706209,66.2021333 72.3431151,71.9229417 C66.6223425,77.6504833 59.0154067,80.8 50.921149,80.8 C42.8268912,80.8 35.2191138,77.6504833 29.4991828,71.9229417 C23.771677,66.2021333 20.62218,58.5943083 20.62218,50.5 C20.62218,42.412425 23.7649437,34.8104917 29.4857163,29.0896833 C33.42385,25.131325 33.42385,18.732975 29.5118078,14.8007083 C27.5785115,12.8741333 25.046794,11.8287833 22.3576858,11.8287833 C19.6618443,11.8287833 17.1242352,12.8808667 15.2170304,14.7880833 L15.2170304,14.78135 L15.2102971,14.7880833 C-4.50898794,34.5150667 -4.50898794,66.4849333 15.2102971,86.211075 C25.0737272,96.068675 37.9940714,101 50.921149,101 C63.8473848,101 76.7685707,96.068675 86.6320008,86.2119167 C106.350444,66.4849333 106.350444,34.5150667 86.6320008,14.7880833 Z M81.8707222,81.4506083 C73.6056072,89.7166167 62.6126676,94.2666667 50.921149,94.2666667 C39.230472,94.2666667 28.2366907,89.7166167 19.9715757,81.4506083 C2.91530733,64.3875 2.91530733,36.6125 19.9648424,19.5552833 L19.9715757,19.5552833 C19.978309,19.5552833 19.978309,19.54855 19.978309,19.54855 C20.6356466,18.8912083 21.4975079,18.5621167 22.3585275,18.5621167 C23.2136555,18.5621167 24.0814084,18.8912083 24.7387459,19.54855 C26.0542627,20.8699667 26.0542627,22.9943333 24.7387459,24.31575 C24.7387459,24.31575 24.7320126,24.31575 24.7320126,24.3224833 C10.2731113,38.7823167 10.2731113,62.223575 24.7387459,76.6834083 C31.9711424,83.9166917 41.4465665,87.5333333 50.921149,87.5333333 C60.3965731,87.5333333 69.8711555,83.9166917 77.103552,76.6834083 C91.5691866,62.223575 91.5691866,38.7755833 77.103552,24.31575 C77.103552,24.31575 77.0968187,24.3090167 77.0900854,24.3090167 L77.0968187,24.3022833 C75.7880352,22.9808667 75.7947685,20.8632333 77.103552,19.54855 C77.7608895,18.8912083 78.6227508,18.5621167 79.4837704,18.5621167 C80.3447901,18.5621167 81.199918,18.8912083 81.8572556,19.54855 L81.8639889,19.5418167 L81.8707222,19.54855 C98.9269906,36.6125 98.9269906,64.3875 81.8707222,81.4506083 Z M50.921149,60.6 C56.4971558,60.6 61.0210858,56.0760417 61.0210858,50.5 L61.0210858,10.1 C61.0210858,4.52395833 56.4971558,0 50.921149,0 C45.3451421,0 40.8212121,4.52395833 40.8212121,10.1 L40.8212121,50.5 C40.8212121,56.0760417 45.3451421,60.6 50.921149,60.6 Z M47.5545033,10.1 C47.5545033,8.24580833 49.0669689,6.73333333 50.921149,6.73333333 C52.775329,6.73333333 54.2877946,8.24580833 54.2877946,10.1 L54.2877946,50.5 C54.2877946,52.3541917 52.775329,53.8666667 50.921149,53.8666667 C49.0669689,53.8666667 47.5545033,52.3541917 47.5545033,50.5 L47.5545033,10.1 Z" id="Shape"></path>
        </g>
    </g>
</svg>