<?xml version="1.0" encoding="UTF-8"?>
<svg width="144px" height="141px" viewBox="0 0 144 141" version="1.1" xmlns="http://www.w3.org/2000/svg" xmlns:xlink="http://www.w3.org/1999/xlink">
    <!-- Generator: Sketch 55.1 (78136) - https://sketchapp.com -->
    <title>UI dashboard enti  DE 2 Copy 3</title>
    <desc>Created with Sketch.</desc>
    <g id="UI-dashboard-enti--DE-2-Copy-3" stroke="none" stroke-width="1" fill="none" fill-rule="evenodd">
        <g id="transfer" transform="translate(10.605263, 14.500000)" fill="#FFFFFF" fill-rule="nonzero">
            <path d="M24.8991194,53.5 C23.5077958,53.5 22.3947368,54.6042471 22.3947368,55.984556 L22.3947368,65.0444015 C22.3947368,75.96139 31.3498017,84.8204633 42.3286101,84.8204633 L70.8380964,84.8204633 L67.3977325,88.2586873 C66.4111576,89.2374517 66.4111576,90.7934363 67.3977325,91.7722008 C67.8783716,92.2490347 68.5360882,92.5 69.1685081,92.5 C69.8009279,92.5 70.4586445,92.2490347 70.9392836,91.7722008 L78.6548056,84.1177606 C79.6413806,83.1389961 79.6413806,81.5830116 78.6548056,80.6042471 L70.9392836,72.9498069 C69.9527087,71.9710425 68.3843075,71.9710425 67.3977325,72.9498069 C66.4111576,73.9285714 66.4111576,75.484556 67.3977325,76.4633205 L70.8380964,79.8764479 L42.3286101,79.8764479 C34.0818554,79.8764479 27.403502,73.2258687 27.403502,65.0694981 L27.403502,56.0096525 C27.403502,54.6293436 26.2651463,53.5 24.8991194,53.5 Z" id="Path"></path>
            <path d="M52.8277345,32.0659102 C53.3070971,32.5429744 53.963067,32.7940608 54.5938073,32.7940608 C55.2245476,32.7940608 55.8805175,32.5429744 56.3598801,32.0659102 C57.343835,31.0866731 57.343835,29.5299372 56.3598801,28.5507001 L52.928653,25.1359247 L81.5138029,25.1359247 C89.7386563,25.1359247 96.3992737,31.7897151 96.3992737,39.9500241 L96.3992737,49.0142443 C96.3992737,50.3952197 97.5093767,51.5 98.8970053,51.5 C100.284634,51.5 101.394737,50.3952197 101.394737,49.0142443 L101.394737,39.9500241 C101.394737,29.0277644 92.4634543,20.1644133 81.5138029,20.1644133 L52.928653,20.1644133 L56.3598801,16.7496379 C57.343835,15.7704008 57.343835,14.2136649 56.3598801,13.2344278 C55.3759253,12.2551907 53.8116894,12.2551907 52.8277345,13.2344278 L45.132703,20.892564 C44.1487481,21.8718011 44.1487481,23.4285369 45.132703,24.407774 L52.8277345,32.0659102 Z" id="Path"></path>
            <path d="M77.8537532,97.6432665 C76.3045729,98.934575 75.3947368,100.846705 75.3947368,102.907832 L75.3947368,109.041547 C75.3947368,110.407354 76.4767041,111.5 77.8291631,111.5 C79.1816221,111.5 80.2635893,110.407354 80.2635893,109.041547 L80.2635893,102.907832 C80.2635893,102.336676 80.5094909,101.815186 80.9275237,101.442693 C86.2389991,97.0472779 91.9685073,94.117001 93.0750647,93.5706781 C94.0340811,93.0988539 94.6734254,92.0807068 94.6734254,91.012894 L94.6734254,82.3710602 C94.6734254,81.5515759 94.2553926,80.7817574 93.5914582,80.334766 C93.1488352,80.0367717 92.8783434,79.5401146 92.8783434,79.0186246 L92.8783434,70.0539637 C92.8783434,66.9498567 95.36195,64.4417383 98.4357204,64.4417383 L100.353753,64.4417383 C103.427524,64.4417383 105.91113,66.9498567 105.91113,70.0539637 L105.91113,79.0186246 C105.91113,79.5401146 105.640638,80.0367717 105.198016,80.334766 C104.509491,80.7817574 104.116048,81.5515759 104.116048,82.3710602 L104.116048,91.012894 C104.116048,92.1055396 104.730802,93.0988539 105.714409,93.5706781 C106.820966,94.117001 112.575065,97.0472779 117.86195,101.442693 C118.279983,101.790353 118.525884,102.336676 118.525884,102.907832 L118.525884,109.041547 C118.525884,110.407354 119.607852,111.5 120.960311,111.5 C122.31277,111.5 123.394737,110.407354 123.394737,109.041547 L123.394737,102.907832 C123.394737,100.871538 122.509491,98.934575 120.93572,97.6432665 C116.288179,93.769341 111.296376,90.9632283 108.984901,89.7464183 L108.984901,83.4885387 C110.116048,82.2965616 110.779983,80.682426 110.779983,78.9937918 L110.779983,70.0291309 C110.779983,64.2182426 106.107852,59.5 100.353753,59.5 L98.4357204,59.5 C92.6816221,59.5 88.0094909,64.2182426 88.0094909,70.0291309 L88.0094909,78.9937918 C88.0094909,80.682426 88.6488352,82.2965616 89.8045729,83.4885387 L89.8045729,89.7464183 C87.4930975,90.9632283 82.5012942,93.769341 77.8537532,97.6432665 Z" id="Path"></path>
            <path d="M35.7799827,19.9689589 L35.7799827,11.0291309 C35.7799827,5.2182426 31.1078516,0.5 25.3537532,0.5 L23.4357204,0.5 C17.6816221,0.5 13.0094909,5.2182426 13.0094909,11.0291309 L13.0094909,19.9937918 C13.0094909,21.682426 13.6488352,23.2965616 14.8045729,24.4885387 L14.8045729,30.7464183 C12.4685073,31.9632283 7.50129422,34.7941738 2.85375324,38.6432665 C1.30457291,39.934575 0.394736842,41.8467049 0.394736842,43.9078319 L0.394736842,50.0415473 C0.394736842,51.4073543 1.47670406,52.5 2.82916307,52.5 C4.18162209,52.5 5.2635893,51.4073543 5.2635893,50.0415473 L5.2635893,43.9078319 C5.2635893,43.3366762 5.50949094,42.8151862 5.92752373,42.4426934 C11.2389991,38.0472779 16.9685073,35.117001 18.0750647,34.5706781 C19.0340811,34.0988539 19.6734254,33.0807068 19.6734254,32.012894 L19.6734254,23.3710602 C19.6734254,22.5515759 19.2553926,21.7817574 18.5914582,21.334766 C18.1488352,21.0367717 17.8783434,20.5401146 17.8783434,20.0186246 L17.8783434,11.0291309 C17.8783434,7.92502388 20.36195,5.41690544 23.4357204,5.41690544 L25.3537532,5.41690544 C28.4275237,5.41690544 30.9111303,7.92502388 30.9111303,11.0291309 L30.9111303,19.9937918 C30.9111303,20.5152818 30.6406385,21.0119389 30.1980155,21.3099331 C29.5094909,21.7569245 29.1160483,22.5267431 29.1160483,23.3462273 L29.1160483,31.9880611 C29.1160483,33.0807068 29.7308024,34.074021 30.714409,34.5458453 C31.8209664,35.0921681 37.5750647,38.0224451 42.86195,42.4178606 C43.2799827,42.7655205 43.5258844,43.3118434 43.5258844,43.882999 L43.5258844,50.0167144 C43.5258844,51.3825215 44.6078516,52.4751671 45.9603106,52.4751671 C47.3127696,52.4751671 48.3947368,51.3825215 48.3947368,50.0167144 L48.3947368,43.882999 C48.3947368,41.8467049 47.5094909,39.934575 45.9357204,38.6184336 C41.2881795,34.7445081 36.2963762,31.9383954 33.9849008,30.7215855 L33.9849008,24.4637058 C35.1406385,23.2717287 35.7799827,21.682426 35.7799827,19.9689589 Z" id="Path"></path>
        </g>
    </g>
</svg>