<?xml version="1.0" encoding="UTF-8"?>
<svg width="144px" height="127px" viewBox="0 0 144 127" version="1.1" xmlns="http://www.w3.org/2000/svg" xmlns:xlink="http://www.w3.org/1999/xlink">
    <!-- Generator: Sketch 55.1 (78136) - https://sketchapp.com -->
    <title>UI servizi DE 10</title>
    <desc>Created with Sketch.</desc>
    <g id="UI-servizi-DE-10" stroke="none" stroke-width="1" fill="none" fill-rule="evenodd">
        <g id="communications" transform="translate(9.748031, 3.500000)" fill="#FFFFFF" fill-rule="nonzero">
            <path d="M52.2519685,64.5 C52.2519685,63.3957248 51.4472456,62.5 50.45516,62.5 L25.0487768,62.5 C24.0566914,62.5 23.2519685,63.3957248 23.2519685,64.5 C23.2519685,65.6042755 24.0566914,66.5 25.0487768,66.5 L50.45516,66.5 C51.4472456,66.5 52.2519685,65.6042755 52.2519685,64.5 L52.2519685,64.5 Z" id="Path"></path>
            <path d="M57.431958,69.5 L36.0710302,69.5 C35.0661337,69.5 34.2519685,70.3949152 34.2519685,71.4994785 C34.2519685,72.6040419 35.0661337,73.5 36.0710302,73.5 L57.431958,73.5 C58.4368544,73.5 59.2519685,72.6040419 59.2519685,71.4994785 C59.2519685,70.3949152 58.4368544,69.5 57.431958,69.5 Z" id="Path"></path>
            <path d="M56.3581152,53.5 L44.1458218,53.5 C43.0991666,53.5 42.2519685,54.3957245 42.2519685,55.5 C42.2519685,56.6042752 43.100154,57.5 44.1458218,57.5 L56.3581152,57.5 C57.403783,57.5 58.2519685,56.6042752 58.2519685,55.5 C58.2519685,54.3957245 57.403783,53.5 56.3581152,53.5 Z" id="Path"></path>
            <path d="M9.2519685,14.5004766 C9.2519685,17.2575527 11.4953688,19.5 14.2524449,19.5 C17.0085683,19.5 19.2519685,17.2575527 19.2519685,14.5004766 C19.2519685,11.7434005 17.0095212,9.5 14.2524449,9.5 C11.4953688,9.5 9.2519685,11.7434005 9.2519685,14.5004766 Z M15.596198,14.5004766 C15.596198,15.2419234 14.9929387,15.8451827 14.2524449,15.8451827 C13.5109983,15.8451827 12.907739,15.2419234 12.907739,14.5004766 C12.907739,13.7590298 13.5109983,13.1557705 14.2524449,13.1557705 C14.9929387,13.1557705 15.596198,13.7590298 15.596198,14.5004766 Z" id="Shape"></path>
            <path d="M20.2519685,14.5004766 C20.2519685,17.2575527 22.4944158,19.5 25.2514919,19.5 C28.0085683,19.5 30.2519685,17.2575527 30.2519685,14.5004766 C30.2519685,11.7434005 28.0085683,9.5 25.2514919,9.5 C22.4944158,9.5 20.2519685,11.7434005 20.2519685,14.5004766 Z M26.596198,14.5004766 C26.596198,15.2419234 25.9929387,15.8451827 25.2514919,15.8451827 C24.5100453,15.8451827 23.9067861,15.2419234 23.9067861,14.5004766 C23.9067861,13.7590298 24.5100453,13.1557705 25.2514919,13.1557705 C25.9929387,13.1557705 26.596198,13.7590298 26.596198,14.5004766 Z" id="Shape"></path>
            <path d="M33.2519685,14.5004766 C33.2519685,17.2575527 35.494416,19.5 38.252445,19.5 C41.0095213,19.5 43.2519685,17.2575527 43.2519685,14.5004766 C43.2519685,11.7434005 41.0095213,9.5 38.252445,9.5 C35.494416,9.5 33.2519685,11.7434005 33.2519685,14.5004766 Z M39.5961981,14.5004766 C39.5961981,15.2419234 38.9929386,15.8451827 38.252445,15.8451827 C37.5109984,15.8451827 36.9077392,15.2419234 36.9077392,14.5004766 C36.9077392,13.7590298 37.5109984,13.1557705 38.252445,13.1557705 C38.9929386,13.1557705 39.5961981,13.7590298 39.5961981,14.5004766 Z" id="Shape"></path>
            <path d="M119.765823,29.1664853 C119.60878,29.1230138 119.445114,29.096553 119.276718,29.096553 C119.276718,29.096553 118.958847,29.097498 118.374191,29.097498 L118.374191,8.18402428 C118.374191,3.94746284 114.923966,0.5 110.6819,0.5 L83.7669222,0.5 C82.7641144,0.5 81.952408,1.31177928 81.952408,2.31256419 C81.952408,3.31334886 82.7650606,4.12418317 83.7669222,4.12418317 L110.6819,4.12418317 C112.923081,4.12418317 114.746109,5.94525231 114.746109,8.18402428 L114.746109,20.5298726 L3.88099682,20.5298726 L3.88099682,8.18402428 C3.88099682,5.94619752 5.70402545,4.12512814 7.94425982,4.12512814 L75.5420076,4.12512814 C76.5438692,4.12512814 77.3565218,3.31334886 77.3565218,2.31256419 C77.3565218,1.31177928 76.5438692,0.5 75.5420076,0.5 L7.94425982,0.5 C3.70219439,0.5 0.251968504,3.94746284 0.251968504,8.18402428 L0.251968504,91.712231 C0.251968504,95.9487922 3.70219439,99.3962551 7.94425982,99.3962551 L41.5411531,99.3962551 L41.5411531,105.41514 L36.4098054,105.41514 C32.8810577,105.41514 30.0107576,108.282355 30.0107576,111.80731 L30.0107576,115.536392 C30.0107576,117.170345 31.3418428,118.5 32.9775544,118.5 L85.7621309,118.5 C87.3978425,118.5 88.7289278,117.170345 88.7289278,115.536392 L88.7289278,111.80731 C88.7289278,108.282355 85.8586274,105.41514 82.3298799,105.41514 L77.1985323,105.41514 L77.1985323,99.3962551 L110.738663,99.3962551 C114.980728,99.3962551 118.430954,95.9487922 118.430954,91.712231 L118.374191,76.0531138 L119.517014,76.0531138 C119.799881,76.0531138 120.071396,75.9841268 120.316422,75.8641081 C122.581253,75.2441697 124.251969,73.1717229 124.251969,70.7146496 L124.251969,34.4359624 C124.251969,31.7842132 122.305954,29.5785173 119.765823,29.1664853 Z M114.921127,32.7216812 L96.2660675,51.5060065 C94.6417084,52.9953709 92.0240023,52.9953709 90.399643,51.5060065 L71.7445831,32.7216812 L114.921127,32.7216812 Z M85.0998995,111.806365 L85.0998995,114.874872 L33.6397859,114.874872 L33.6397859,111.806365 C33.6397859,110.28109 34.8819428,109.039323 36.4098054,109.039323 L82.3298799,109.039323 C83.8577426,109.039323 85.0998995,110.28109 85.0998995,111.806365 L85.0998995,111.806365 Z M73.569504,105.41514 L45.1701814,105.41514 L45.1701814,99.3962551 L73.569504,99.3962551 L73.569504,105.41514 Z M114.746109,91.712231 C114.746109,93.9500578 112.923081,95.7711269 110.6819,95.7711269 L8.00102252,95.7711269 C5.75984216,95.7711269 3.93681354,93.9500578 3.93681354,91.712231 L3.93681354,85.2501281 L114.746109,85.2501281 L114.746109,91.712231 Z M114.746109,81.625 L3.88099682,81.625 L3.88099682,24.1550007 L114.746109,24.1550007 L114.746109,29.0993882 C102.04924,29.1069484 67.0285493,29.1305741 66.8998871,29.1664853 C64.3597566,29.5785173 62.4146882,31.7842132 62.4146882,34.4359624 L62.4146882,39.687484 C62.4146882,40.688269 63.2263949,41.500048 64.2282563,41.500048 C65.2310639,41.500048 66.0427706,40.688269 66.0427706,39.687484 L66.0427706,34.4359624 C66.0427706,33.8122436 66.3786163,33.2679074 66.8781281,32.9673885 L82.2674409,48.4639607 C82.0356599,48.7540844 81.8133393,49.0536583 81.6052094,49.3655177 L66.5280916,71.9072751 C66.2281954,71.5982508 66.0427706,71.1777133 66.0427706,70.7146496 L66.0427706,47.903559 C66.0427706,46.9027743 65.2301179,46.0909951 64.2282563,46.0909951 C63.2263949,46.0909951 62.4146882,46.9027743 62.4146882,47.903559 L62.4146882,70.7146496 C62.4146882,72.5498942 63.3910066,74.2896911 64.9529268,75.25551 C66.6586456,76.3101615 68.6462862,76.0540588 70.5714874,76.0531138 L87.8576202,76.0531138 L108.747238,76.0531138 L114.746109,76.0531138 L114.746109,81.625 Z M70.5440522,72.4289306 L84.6230928,51.3784279 C84.6949922,51.2706945 84.7716218,51.1667415 84.8491976,51.0627883 L87.8509981,54.0859336 C87.8680268,54.1029439 87.8850557,54.1190094 87.9020844,54.135075 C89.4252169,55.5535623 91.3787996,56.2632785 93.3333285,56.2632785 C95.2878572,56.2632785 97.2423859,55.5535623 98.7645723,54.135075 C98.781601,54.1190094 98.7986299,54.1029439 98.8156586,54.0859336 L101.820297,51.0608984 C101.895981,51.1657963 101.971664,51.2706945 102.043564,51.3793728 L116.122605,72.4289306 L70.5440522,72.4289306 Z M120.62294,70.7146496 C120.62294,71.1777133 120.437515,71.5982508 120.137619,71.9072751 L105.060501,49.3655177 C104.852371,49.0536583 104.630051,48.7540844 104.39827,48.4639607 L119.787582,32.9673885 C120.287094,33.2679074 120.62294,33.8122436 120.62294,34.4359624 L120.62294,70.7146496 Z" id="Shape"></path>
        </g>
    </g>
</svg>