<?xml version="1.0" encoding="UTF-8"?>
<svg width="144px" height="141px" viewBox="0 0 144 141" version="1.1" xmlns="http://www.w3.org/2000/svg" xmlns:xlink="http://www.w3.org/1999/xlink">
    <!-- Generator: Sketch 55.1 (78136) - https://sketchapp.com -->
    <title>UI servizi DE 8</title>
    <desc>Created with Sketch.</desc>
    <g id="UI-servizi-DE-8" stroke="none" stroke-width="1" fill="none" fill-rule="evenodd">
        <g id="confetti" transform="translate(8.000000, 0.000000)" fill="#FFFFFF" fill-rule="nonzero">
            <path d="M63.216873,72.6078095 C65.7537002,74.911712 71.4022949,80.0413049 63.2129958,72.6042562 C61.5690432,71.1113252 62.0766855,71.5724337 63.2107802,72.6023429 C57.894798,67.7750535 52.0348933,64.105592 46.7103257,62.2699046 C40.7111172,60.2018862 35.9066545,60.671468 33.1837195,63.5922774 C30.4602306,66.5130867 30.3851782,71.2769635 32.9715787,77.0059701 C35.2671858,82.0910101 39.4598743,87.5507862 44.7766874,92.3791689 C50.0935005,97.2072782 55.953959,100.87756 61.2793574,102.71352 C61.6177857,102.829959 61.9515059,102.936831 62.2819027,103.037417 L6.13466125,133.758668 L27.9588525,85.5855401 C28.5130219,84.3621129 27.9574678,82.926308 26.7178566,82.3793737 C25.4771376,81.8327128 24.023447,82.380467 23.4692777,83.6041675 L0.285280591,134.778738 C-1.07563303,137.76214 2.71991462,141.177677 5.59738562,139.602474 L71.9068909,103.320861 C73.0866817,102.759167 73.9377373,102.240659 74.8059637,101.390874 C80.3166391,95.9980642 75.0782018,83.3814032 63.216873,72.6078095 Z M71.1865538,98.1051688 C69.5215533,100.214187 65.0228392,98.8631142 62.9008774,98.1314085 C58.1947307,96.5089189 52.9407844,93.1977936 48.1064115,88.8075596 C43.2723156,84.4178723 39.4925539,79.5247103 37.4633691,75.0311574 C35.7759359,71.2928166 35.528623,68.2454552 36.8022985,66.8793496 C37.443429,66.1916501 38.5462287,65.8478004 39.9833026,65.8478004 C41.4009902,65.8478004 43.1443665,66.1826302 45.0879749,66.8528365 C49.7941216,68.4753262 55.048068,71.7864514 59.8824408,76.1766854 C70.5343455,85.8498507 73.4179093,95.2775651 71.1865538,98.1051688 Z" id="Shape"></path>
            <g id="Group" transform="translate(52.000000, 4.000000)">
                <path d="M1.06132075,53.3359091 C0.00764150943,52.4653636 1.53509434,53.7275455 1.06132075,53.3359091 L1.06132075,53.3359091 Z" id="Path"></path>
                <path d="M13.890283,4.59027273 C15.0141509,3.80536364 15.2649057,2.29145455 14.4503774,1.20818182 C13.635566,0.125181818 12.0650943,-0.115909091 10.9406604,0.668454545 C4.75471698,4.98872727 1.6709434,9.44727273 1.77509434,13.9210909 C1.85009434,17.1627273 3.49018868,19.1432727 5.07650943,21.0586364 C6.44462264,22.7105455 7.85915094,24.4186364 8.55198113,27.3466364 C9.61301887,31.8302727 8.23896226,35.8123636 7.02679245,39.3256364 C5.68613208,43.212 3.58754717,46.7768182 0.789339623,49.9216364 C-0.114339623,50.9372727 0.00735849057,52.4659091 1.06103774,53.3364545 C2.10028302,54.1955455 3.71292453,54.0758182 4.60415094,53.0743636 C7.82886792,49.4503636 10.2483962,45.339 11.7959434,40.8537273 C13.0740566,37.1484545 14.8250943,32.0738182 13.4518868,26.2699091 C12.5032075,22.2638182 10.5633962,19.9208182 9.0045283,18.0381818 C7.58009434,16.3178182 6.83490566,15.3490909 6.7995283,13.8133636 C6.71915094,10.3388182 10.6112264,6.88009091 13.890283,4.59027273 Z" id="Path"></path>
            </g>
            <path d="M88.4616285,20 C88.4599101,20 88.4584781,20 88.4573325,20 C87.0545432,20 85.9166742,21.0902718 85.914383,22.4367548 C85.907223,26.474829 85.0749433,30.3663792 83.4401696,34.0028178 C80.3009344,40.9867702 75.0520736,45.1892375 71.2011333,47.4852411 C70.0082754,48.1966943 69.6422557,49.7017972 70.3831736,50.8470499 C70.8648991,51.5909419 71.6957468,52 72.5457833,52 C73.0037376,52 73.4677063,51.8812412 73.8852782,51.6321776 C78.3536978,48.9678018 84.4485856,44.0819216 88.1102152,35.9370468 C90.0199333,31.6883956 90.9922628,27.1488952 91,22.444727 C91.0025732,21.0968695 89.8658499,20.0021992 88.4616285,20 Z" id="Path"></path>
            <path d="M121.751947,32.3127335 C120.575646,31.6508512 119.09037,32.0740354 118.433147,33.2570152 C115.105008,39.2485297 110.871642,43.4289263 105.851146,45.6823133 C102.288187,47.2815625 99.3335642,47.4840272 96.205916,47.697832 C92.8382286,47.9287855 89.3554654,48.1669304 85.4670527,50.2463416 C79.3012901,53.5424767 74.8001461,60.1494063 72.0883092,69.8837504 C71.7428068,71.1245377 72.4415017,72.4604723 73.6535066,72.8734227 C74.9602637,73.3184576 76.4114837,72.5487048 76.7839013,71.2111107 C79.1211235,62.8201691 82.8120671,57.2263924 87.7534657,54.5846717 C90.7231936,52.9964861 93.4171786,52.8122765 96.5363129,52.5987482 C99.7922201,52.3758158 103.48234,52.1232882 107.836,50.1691727 C113.838898,47.4746231 118.836324,42.5916853 122.689033,35.6556125 C123.346806,34.4715263 122.926875,32.9748924 121.751947,32.3127335 Z" id="Path"></path>
            <path d="M123.635887,77.4727306 C122.931872,76.3925372 121.439349,76.060708 120.304421,76.7303243 C116.452098,79.0008028 112.932022,79.8273968 109.844494,79.1870519 C107.910701,78.7855412 106.739522,77.9439229 105.256539,76.8779767 C104.085633,76.0363583 102.758825,75.0828351 100.952316,74.3191876 C95.5017172,72.0155521 88.5801276,72.7315364 80.3791546,76.4469355 C79.1728165,76.9937672 78.6609541,78.3664158 79.2360497,79.5129232 C79.8111454,80.6591716 81.2546082,81.1453882 82.4620365,80.5993336 C89.3274794,77.488273 94.8871008,76.7899033 98.9852705,78.5218393 C100.282643,79.0702253 101.280202,79.7875048 102.336634,80.5467486 C103.978246,81.7269312 105.838993,83.0646095 108.812047,83.6811228 C109.836862,83.8935349 110.881301,84 111.944819,84 C115.405751,84 119.062378,82.8755109 122.855283,80.6392256 C123.991302,79.9698684 124.34072,78.5518879 123.635887,77.4727306 Z" id="Path"></path>
            <path d="M128.973984,55.1013072 C128.77999,53.7722779 127.553007,52.8539347 126.226834,53.0401856 C126.517551,52.9976061 126.662772,52.976179 126.214504,53.0412844 C124.558707,53.2841248 125.597998,53.1322122 126.182172,53.0467785 C123.631482,53.424225 121.173679,54.190381 118.876716,55.3246434 C115.68212,56.9028313 112.796599,59.2251985 110.53142,62.0412131 C109.760651,62.9993888 109.836275,64.4297846 110.706507,65.2989554 C111.716207,66.3071276 113.424613,66.2156504 114.318957,65.1036392 C116.143266,62.8356638 118.462972,60.9671114 121.02791,59.7004405 C122.877975,58.7862178 124.859835,58.1700515 126.919239,57.8678746 C128.248425,57.6725584 129.1688,56.4341823 128.973984,55.1013072 Z" id="Path"></path>
            <path d="M97,61 C95.345679,61 94,62.3459801 94,64 C94,65.654321 95.345679,67 97,67 C98.654321,67 100,65.654321 100,64 C100,62.345679 98.654321,61 97,61 Z" id="Path"></path>
            <path d="M104,26 C102.345679,26 101,27.3457465 101,29.0001506 C101,30.6542535 102.34598,32 104,32 C105.654321,32 107,30.6542535 107,29.0001506 C107,27.3457465 105.654321,26 104,26 Z" id="Path"></path>
            <path d="M83,0 C81.345679,0 80,1.34574655 80,3.00015056 C80,4.65425345 81.345679,6 83,6 C84.654321,6 86,4.65425345 86,3.00015056 C86,1.34574655 84.654321,0 83,0 Z" id="Path"></path>
            <path d="M127.999849,17 C126.345611,17 125,18.3457465 125,19.9998494 C125,21.6539523 126.345913,23 128.000151,23 C129.654389,23 131,21.6542535 131,19.9998494 C130.999699,18.3457465 129.654087,17 127.999849,17 Z" id="Path"></path>
            <path d="M110.999849,5 C109.345747,5 108,6.34567901 108,8 C108,9.65432099 109.345747,11 110.999849,11 C112.654253,11 114,9.65432099 114,8 C114,6.34567901 112.654253,5 110.999849,5 Z" id="Path"></path>
            <path d="M73,14 C71.345679,14 70,15.3457465 70,17.0001506 C70,18.6539523 71.345679,20 73,20 C74.6543209,20 76,18.6542535 76,17.0001506 C76.0003011,15.3457465 74.6546221,14 73,14 Z" id="Path"></path>
            <path d="M129,66 C127.345679,66 126,67.3457465 126,68.9998494 C126,70.6542535 127.345679,72 129,72 C130.654321,72 132,70.6542535 132,68.9998494 C132.000301,67.3463488 130.654622,66 129,66 Z" id="Path"></path>
            <path d="M49.0001505,35 C47.3457465,35 46,36.3457465 46,38.0001506 C46,39.6539523 47.3457465,41 49.0001505,41 C50.6542534,41 52,39.6542535 52,38.0001506 C52.0003011,36.3457465 50.6542534,35 49.0001505,35 Z" id="Path"></path>
            <path d="M39.5,95 C35.3646637,95 32,98.3646637 32,102.5 C32,106.635336 35.3646637,110 39.5,110 C43.6353363,110 47,106.635336 47,102.5 C47,98.3646637 43.635608,95 39.5,95 Z M39.5,105.17603 C38.0243942,105.17603 36.8239704,103.975062 36.8239704,102.5 C36.8239704,101.024394 38.0243942,99.8239704 39.5,99.8239704 C40.9756058,99.8239704 42.1760296,101.024394 42.1760296,102.5 C42.1760296,103.975606 40.9756058,105.17603 39.5,105.17603 Z" id="Shape"></path>
            <path d="M26.5165433,112.54299 C25.8120158,110.60963 24.420323,109.075155 22.5981006,108.222762 C21.385456,107.654967 19.9584961,108.210156 19.4099576,109.461434 C18.8608764,110.712713 19.398021,112.186683 20.6095805,112.753357 C21.2595797,113.057844 21.7560315,113.60491 22.0075129,114.294836 C22.2589942,114.984761 22.2351211,115.734352 21.9405054,116.40579 C21.3325554,117.791243 19.7466224,118.407499 18.4034897,117.780039 C17.1919302,117.213084 15.7638852,117.767714 15.2153466,119.018712 C14.6662655,120.26971 15.2034101,121.74368 16.4149695,122.310635 C17.4151979,122.778428 18.4629011,123 19.4956837,123 C22.3468906,122.99972 25.0771043,121.31034 26.3285427,118.45904 C27.1535208,116.577501 27.2207996,114.476631 26.5165433,112.54299 Z" id="Path"></path>
        </g>
    </g>
</svg>