<?xml version="1.0" encoding="UTF-8"?>
<svg width="144px" height="170px" viewBox="0 0 144 170" version="1.1" xmlns="http://www.w3.org/2000/svg" xmlns:xlink="http://www.w3.org/1999/xlink">
    <!-- Generator: Sketch 55.1 (78136) - https://sketchapp.com -->
    <title>UI onboarding enti 11</title>
    <desc>Created with Sketch.</desc>
    <g id="UI-onboarding-enti-11" stroke="none" stroke-width="1" fill="none" fill-rule="evenodd">
        <g id="insurance" transform="translate(1.000000, 13.500000)" fill="#3F556D" fill-rule="nonzero">
            <path d="M13.5,26.5 L28.5,26.5 C29.8807117,26.5 31,25.3807117 31,24 C31,22.6192881 29.8807117,21.5 28.5,21.5 L13.5,21.5 C12.1192881,21.5 11,22.6192881 11,24 C11,25.3807117 12.1192881,26.5 13.5,26.5 Z" id="Shape"></path>
            <path d="M39.3636364,26.5 L60.6363636,26.5 C61.9417638,26.5 63,25.3807117 63,24 C63,22.6192881 61.9417638,21.5 60.6363636,21.5 L39.3636364,21.5 C38.0582362,21.5 37,22.6192881 37,24 C37,25.3807117 38.0582362,26.5 39.3636364,26.5 Z" id="Shape"></path>
            <path d="M13.3529412,52.5 L88.6470588,52.5 C89.9465522,52.5 91,51.3807118 91,50 C91,48.6192882 89.9465522,47.5 88.6470588,47.5 L13.3529412,47.5 C12.0534476,47.5 11,48.6192882 11,50 C11,51.3807118 12.0534476,52.5 13.3529412,52.5 Z" id="Shape"></path>
            <path d="M14.3125,63.5 L46.6875,63.5 C47.9646584,63.5 49,62.3807118 49,61 C49,59.6192882 47.9646584,58.5 46.6875,58.5 L14.3125,58.5 C13.0353415,58.5 12,59.6192882 12,61 C12,62.3807118 13.0353415,63.5 14.3125,63.5 Z" id="Shape"></path>
            <path d="M14.3125,80.5 L46.6875,80.5 C47.9646584,80.5 49,79.3807118 49,78 C49,76.6192882 47.9646584,75.5 46.6875,75.5 L14.3125,75.5 C13.0353415,75.5 12,76.6192882 12,78 C12,79.3807118 13.0353415,80.5 14.3125,80.5 Z" id="Shape"></path>
            <path d="M14.3125,100.5 L46.6875,100.5 C47.9646584,100.5 49,99.3807118 49,98 C49,96.6192882 47.9646584,95.5 46.6875,95.5 L14.3125,95.5 C13.0353415,95.5 12,96.6192882 12,98 C12,99.3807118 13.0353415,100.5 14.3125,100.5 Z" id="Shape"></path>
            <path d="M14.3125,118.5 L46.6875,118.5 C47.9646584,118.5 49,117.380712 49,116 C49,114.619288 47.9646584,113.5 46.6875,113.5 L14.3125,113.5 C13.0353415,113.5 12,114.619288 12,116 C12,117.380712 13.0353415,118.5 14.3125,118.5 Z" id="Shape"></path>
            <path d="M139.59,68.9554824 L112.8,57.3864354 L112.8,7.54999818 C112.8,3.6563917 109.643607,0.5 105.75,0.5 L16.45,0.5 C12.5563925,0.5 9.4,3.6563917 9.4,7.54999818 L9.4,9.89999758 L7.05,9.89999758 C3.15639251,9.89999758 0,13.0563893 0,16.9499958 L0,134.449966 C0,138.343572 3.15639251,141.5 7.05,141.5 L96.35,141.5 C98.2512226,141.4957 100.069681,140.72169 101.39075,139.354414 L103.31775,140.724464 C104.774394,141.758512 106.725606,141.758512 108.18225,140.724464 L130.9185,124.540018 C137.221267,120.066617 140.975984,112.825003 141,105.096123 L141,71.1127818 C141,70.1771037 140.447565,69.3297529 139.59,68.9554824 Z M14.1,7.54999818 C14.1,6.25212936 15.1521308,5.19999879 16.45,5.19999879 L105.75,5.19999879 C107.047869,5.19999879 108.1,6.25212936 108.1,7.54999818 L108.1,55.3560359 L106.69,54.742686 C106.096039,54.4865377 105.422761,54.4865377 104.8288,54.742686 L103.4188,55.3560359 L103.4188,40.4499897 C103.4188,40.3982897 103.39295,40.3489397 103.38825,40.2972398 C103.376596,40.1003721 103.33866,39.9059479 103.27545,39.7191399 C103.259,39.6650899 103.26135,39.6086899 103.2402,39.5569899 C103.21905,39.50529 103.2026,39.50529 103.19085,39.47709 C103.076472,39.2213966 102.917301,38.9882116 102.72085,38.7885401 L74.52085,10.5885474 C74.3211785,10.3920967 74.0879934,10.232926 73.8323,10.1185475 C73.80175,10.1044475 73.7806,10.0809475 73.7524,10.0691975 C73.7242,10.0574475 73.6443,10.0503975 73.5926,10.0339475 C73.4032316,9.97087011 73.2065986,9.93217528 73.00745,9.91879757 C72.9487,9.92584757 72.9017,9.89999758 72.85,9.89999758 L14.1,9.89999758 L14.1,7.54999818 Z M75.2,17.9228955 L95.3771,38.0999903 L77.55,38.0999903 C76.252131,38.0999903 75.2,37.0478596 75.2,35.7499909 L75.2,17.9228955 Z M96.35,136.799965 L7.05,136.799965 C5.75213084,136.799965 4.7,135.747834 4.7,134.449966 L4.7,16.9499958 C4.7,15.6521269 5.75213084,14.5999964 7.05,14.5999964 L70.5,14.5999964 L70.5,35.7499909 C70.5,39.6435973 73.6563926,42.7999891 77.55,42.7999891 L98.7,42.7999891 L98.7,57.3864354 L91.13535,60.6599845 C91.4600262,60.260918 91.6412662,59.7643704 91.65,59.2499849 C91.65,57.9521162 90.597869,56.8999855 89.3,56.8999855 L56.4,56.8999855 C55.102131,56.8999855 54.05,57.9521162 54.05,59.2499849 C54.05,60.5478536 55.102131,61.5999843 56.4,61.5999843 L88.94515,61.5999843 L78.06465,66.2999831 L14.1,66.2999831 C12.8021308,66.2999831 11.75,67.3521137 11.75,68.6499825 C11.75,69.9478512 12.8021308,70.9999818 14.1,70.9999818 L70.51645,70.9999818 C70.51645,71.0375818 70.5,71.0728318 70.5,71.1127818 L70.5,75.6999806 L56.4,75.6999806 C55.102131,75.6999806 54.05,76.7521113 54.05,78.04998 C54.05,79.3478487 55.102131,80.3999794 56.4,80.3999794 L70.5,80.3999794 L70.5,85.0999782 L14.1,85.0999782 C12.8021308,85.0999782 11.75,86.1521089 11.75,87.4499776 C11.75,88.7478463 12.8021308,89.799977 14.1,89.799977 L70.5,89.799977 L70.5,94.4999758 L56.4,94.4999758 C55.102131,94.4999758 54.05,95.5521065 54.05,96.8499752 C54.05,98.1478439 55.102131,99.1999746 56.4,99.1999746 L70.5,99.1999746 L70.5,103.899973 L14.1,103.899973 C12.8021308,103.899973 11.75,104.952104 11.75,106.249973 C11.75,107.547841 12.8021308,108.599972 14.1,108.599972 L70.79375,108.599972 C71.0274166,110.203365 71.4258932,111.77837 71.98285,113.299971 L56.4,113.299971 C55.102131,113.299971 54.05,114.352102 54.05,115.64997 C54.05,116.947839 55.102131,117.99997 56.4,117.99997 L74.35635,117.99997 C75.4669081,119.728987 76.7945088,121.308524 78.3067,122.699969 L14.1,122.699969 C12.8021308,122.699969 11.75,123.752099 11.75,125.049968 C11.75,126.347837 12.8021308,127.399967 14.1,127.399967 L84.6,127.399967 L97.4028,136.513265 C97.0800392,136.692131 96.7188868,136.79048 96.35,136.799965 Z M136.3,105.096123 C136.27712,111.303831 133.258588,117.118595 128.19485,120.709519 L105.75,136.687165 L83.30515,120.707169 C78.2420849,117.116727 75.2236372,111.303001 75.2,105.096123 L75.2,72.6661314 L79.4535,70.8284319 L79.49815,70.8096319 L105.75,59.4591348 L136.3,72.6567314 L136.3,105.096123 Z" id="Shape"></path>
            <path d="M105.572727,65.6944021 L82.3909139,75.7539179 C81.5449604,76.1247789 80.9986351,76.9644106 81.0000026,77.891565 L81.0000026,105.443461 C81.0210681,110.087399 83.2725981,114.435508 87.0458221,117.11902 L105.155455,130.068318 C105.960245,130.643894 107.039755,130.643894 107.844545,130.068318 L125.954178,117.11902 C129.726805,114.434985 131.978163,110.087209 132.000003,105.443461 L132.000003,77.891565 C132.001365,76.9644106 131.45504,76.1247789 130.609086,75.7539179 L107.427273,65.6944021 C106.836019,65.4351993 106.163981,65.4351993 105.572727,65.6944021 Z M127.363632,79.4330927 L127.363632,105.443461 C127.346703,108.58641 125.819251,111.527536 123.262769,113.339715 L106.5,125.313333 L89.7372306,113.325744 C87.1838341,111.517212 85.6566243,108.581756 85.6363678,105.443461 L85.6363678,79.4214497 L106.5,70.370214 L127.363632,79.4330927 Z" id="Shape"></path>
            <path d="M93.771372,100.300001 C93.0976877,99.7998517 92.2056233,99.6934636 91.4312104,100.020911 C90.6567976,100.348359 90.1176882,101.059896 90.0169596,101.887493 C89.916231,102.715089 90.269186,103.533014 90.9428703,104.033163 L100.371209,111.032843 C101.389573,111.789347 102.830796,111.608564 103.626343,110.624528 L122.483021,87.2922625 C123.296635,86.2858616 123.132008,84.8171244 122.115316,84.0117459 C121.098624,83.2063674 119.614869,83.3693284 118.801255,84.3757293 L101.37297,105.944076 L93.771372,100.300001 Z" id="Shape"></path>
        </g>
    </g>
</svg>