<?xml version="1.0" encoding="UTF-8"?>
<svg width="144px" height="180px" viewBox="0 0 144 180" version="1.1" xmlns="http://www.w3.org/2000/svg" xmlns:xlink="http://www.w3.org/1999/xlink">
    <!-- Generator: Sketch 55.1 (78136) - https://sketchapp.com -->
    <title>UI onboarding enti 6 (1)</title>
    <desc>Created with Sketch.</desc>
    <g id="UI-onboarding-enti-6-(1)" stroke="none" stroke-width="1" fill="none" fill-rule="evenodd">
        <g id="Group-2" transform="translate(5.000000, 7.000000)" fill="#3F556D" fill-rule="nonzero">
            <g id="certificate" transform="translate(1.000000, 0.000000)">
                <path d="M90.5384615,25.0384195 C90.5384615,18.2656823 85.0346277,12.7554745 78.2697248,12.7554745 C71.5038339,12.7554745 66,18.2656823 66,25.0384195 C66,31.8121458 71.5038339,37.3223535 78.2697248,37.3223535 C85.0346277,37.3223535 90.5384615,31.8121458 90.5384615,25.0384195 L90.5384615,25.0384195 Z M69.7930892,25.0384195 C69.7930892,20.3593435 73.5960616,16.5529567 78.2697248,16.5529567 C82.9433882,16.5529567 86.7453721,20.3593435 86.7453721,25.0384195 C86.7453721,29.7184845 82.9433882,33.5248716 78.2697248,33.5248716 C73.5960616,33.5248716 69.7930892,29.7174951 69.7930892,25.0384195 Z" id="Shape"></path>
                <path d="M57.2200226,17.8382771 C58.3307008,17.8382771 59.2307692,16.8902732 59.2307692,15.7204425 C59.2307692,14.5506124 58.3307008,13.6026083 57.2200226,13.6026083 L51.9338235,13.6026083 C50.8231454,13.6026083 49.9230769,14.5506124 49.9230769,15.7204425 C49.9230769,16.8902732 50.8231454,17.8382771 51.9338235,17.8382771 L57.2200226,17.8382771 Z" id="Path"></path>
                <path d="M14.6294515,17.8382771 L40.3705488,17.8382771 C41.4405708,17.8382771 42.3076923,16.8902732 42.3076923,15.7204425 C42.3076923,14.5506124 41.4405708,13.6026083 40.3705488,13.6026083 L14.6294515,13.6026083 C13.5594294,13.6026083 12.6923077,14.5506124 12.6923077,15.7204425 C12.6923077,16.8902732 13.5594294,17.8382771 14.6294515,17.8382771 Z" id="Path"></path>
                <path d="M14.7192906,34.7809522 L21.6653247,34.7809522 C22.7849714,34.7809522 23.6923077,33.8329484 23.6923077,32.6631177 C23.6923077,31.4932876 22.7849714,30.5452834 21.6653247,30.5452834 L14.7192906,30.5452834 C13.599644,30.5452834 12.6923077,31.4932876 12.6923077,32.6631177 C12.6923077,33.8329484 13.599644,34.7809522 14.7192906,34.7809522 Z" id="Path"></path>
                <path d="M33.3386733,30.5452834 C32.2168183,30.5452834 31.3076923,31.4932876 31.3076923,32.6631177 C31.3076923,33.8329484 32.2168183,34.7809522 33.3386733,34.7809522 L37.7382498,34.7809522 C38.8601048,34.7809522 39.7692308,33.8329484 39.7692308,32.6631177 C39.7692308,31.4932876 38.8601048,30.5452834 37.7382498,30.5452834 L33.3386733,30.5452834 Z" id="Path"></path>
                <path d="M14.6346569,26.3096147 L58.1345738,26.3096147 C59.2074712,26.3096147 60.0769231,25.3616105 60.0769231,24.1917804 C60.0769231,23.0219497 59.2074712,22.0739459 58.1345738,22.0739459 L14.6346569,22.0739459 C13.5617595,22.0739459 12.6923077,23.0219497 12.6923077,24.1917804 C12.6923077,25.3616105 13.5617595,26.3096147 14.6346569,26.3096147 Z" id="Path"></path>
                <path d="M19.6632411,57.6535637 L84.4146852,57.6535637 C88.2582271,57.6535637 91.3846154,54.6129272 91.3846154,50.8760062 C91.3846154,47.1390852 88.2582271,44.0994236 84.4146852,44.0994236 L19.6632411,44.0994236 C15.8196992,44.0994236 12.6923077,47.1390852 12.6923077,50.8760062 C12.6923077,54.6129272 15.8196992,57.6535637 19.6632411,57.6535637 Z M19.6632411,47.8421958 L84.4146852,47.8421958 C86.1348508,47.8421958 87.5350553,49.2025833 87.5350553,50.8760062 C87.5350553,52.5494291 86.1348508,53.9107917 84.4146852,53.9107917 L19.6632411,53.9107917 C17.9420723,53.9107917 16.5418678,52.5494291 16.5418678,50.8760062 C16.5418678,49.2025833 17.9420723,47.8421958 19.6632411,47.8421958 Z" id="Shape"></path>
                <path d="M19.6632411,75.4433726 L84.4146852,75.4433726 C88.2582271,75.4433726 91.3846154,72.4027358 91.3846154,68.6658149 C91.3846154,64.9288939 88.2582271,61.8892325 84.4146852,61.8892325 L19.6632411,61.8892325 C15.8196992,61.8892325 12.6923077,64.9288939 12.6923077,68.6658149 C12.6923077,72.4027358 15.8196992,75.4433726 19.6632411,75.4433726 Z M19.6632411,65.6320047 L84.4146852,65.6320047 C86.1348508,65.6320047 87.5350553,66.9933674 87.5350553,68.6658149 C87.5350553,70.339238 86.1348508,71.7006004 84.4146852,71.7006004 L19.6632411,71.7006004 C17.9420723,71.7006004 16.5418678,70.339238 16.5418678,68.6658149 C16.5418678,66.9933674 17.9420723,65.6320047 19.6632411,65.6320047 Z" id="Shape"></path>
                <path d="M19.6632411,93.2331815 L84.4146852,93.2331815 C88.2582271,93.2331815 91.3846154,90.1935201 91.3846154,86.4565992 C91.3846154,82.7196782 88.2582271,79.6790414 84.4146852,79.6790414 L19.6632411,79.6790414 C15.8196992,79.6790414 12.6923077,82.7196782 12.6923077,86.4565992 C12.6923077,90.1935201 15.8196992,93.2331815 19.6632411,93.2331815 L19.6632411,93.2331815 Z M19.6632411,83.4218136 L84.4146852,83.4218136 C86.1348508,83.4218136 87.5350553,84.783176 87.5350553,86.4565992 C87.5350553,88.1290466 86.1348508,89.4904093 84.4146852,89.4904093 L19.6632411,89.4904093 C17.9420723,89.4904093 16.5418678,88.1290466 16.5418678,86.4565992 C16.5418678,84.783176 17.9420723,83.4218136 19.6632411,83.4218136 Z" id="Shape"></path>
                <path d="M19.0002536,111.02299 L65.6151313,111.02299 C69.5596651,111.02299 72.7692308,107.983329 72.7692308,104.246408 C72.7692308,100.509487 69.5596651,97.4688503 65.6151313,97.4688503 L19.0002536,97.4688503 C15.0557198,97.4688503 11.8461538,100.509487 11.8461538,104.246408 C11.8461538,107.983329 15.0557198,111.02299 19.0002536,111.02299 Z M19.0002536,101.211622 L65.6151313,101.211622 C67.3815248,101.211622 68.8174914,102.572985 68.8174914,104.246408 C68.8174914,105.919831 67.3815248,107.280218 65.6151313,107.280218 L19.0002536,107.280218 C17.2338598,107.280218 15.7968639,105.919831 15.7968639,104.246408 C15.7968639,102.572985 17.2338598,101.211622 19.0002536,101.211622 Z" id="Shape"></path>
                <path d="M125.951477,103.508321 L118.648132,103.508321 L118.648132,97.0483836 C118.648132,95.3973425 117.653137,93.9762573 116.234161,93.3489223 L119.06607,80.3483617 C119.878784,76.6125916 118.892853,72.6398061 116.425507,69.7209834 C114.073975,66.9393273 110.638824,65.3437582 106.999237,65.3437582 C106.390961,65.3437582 105.788727,65.39217 105.195557,65.4789075 L105.195557,6.47814809 C105.195557,2.93299905 102.315308,0.0484681594 98.7754211,0.0484681594 L6.42013556,0.0484681594 C2.88024902,0.0484681594 0,2.93299905 0,6.47814809 L0,27.2427362 C0,28.311828 0.865081852,29.1781957 1.93258673,29.1781957 C3.00009162,29.1781957 3.86517347,28.311828 3.86517347,27.2427362 L3.86517347,6.47814809 C3.86517347,5.06714847 5.01123047,3.91938771 6.42013556,3.91938771 L98.7754211,3.91938771 C100.184326,3.91938771 101.330383,5.06714847 101.330383,6.47814809 L101.330383,66.7245004 C99.9114074,67.4587446 98.6314086,68.4683306 97.5719606,69.7209834 C96.1116943,71.4496847 95.1529541,73.5455083 94.8004762,75.781524 C94.6333008,76.8375044 95.3533631,77.8289359 96.4067687,77.9953511 C97.4631957,78.1627748 98.4511414,77.4416422 98.6183166,76.3856618 C98.8600158,74.8495986 99.5186463,73.4093503 100.522705,72.222255 C102.138062,70.3110011 104.498657,69.2146775 106.999237,69.2146775 C109.499817,69.2146775 111.860412,70.3110011 113.475769,72.222255 C115.170685,74.2273065 115.84845,76.9565166 115.28952,79.5233456 L112.352875,93.0049976 L101.645599,93.0049976 L99.8419189,84.7225611 C99.6143187,83.6786838 98.58609,83.0170572 97.541748,83.243987 C96.4984131,83.4719253 95.8377686,84.5036999 96.0653688,85.5475774 L97.7643127,93.3489223 C96.3443299,93.9762573 95.3493348,95.3973425 95.3493348,97.0483836 L95.3493348,103.508321 L88.0469971,103.508321 C84.7115479,103.508321 81.997467,106.225428 81.997467,109.565835 L81.997467,114.497778 C81.997467,117.838186 84.7115479,120.555293 88.0469971,120.555293 L88.1497191,120.555293 L89.3229676,125.769637 C89.5324402,126.699546 89.8899535,127.559862 90.3683166,128.329407 L6.42013556,128.329407 C5.01123047,128.329407 3.86517347,127.181646 3.86517347,125.770646 L3.86517347,36.1242672 C3.86517347,35.0551753 3.00009162,34.1888074 1.93258673,34.1888074 C0.865081852,34.1888074 0,35.0551753 0,36.1242672 L0,125.770646 C0,129.315795 2.88024902,132.201334 6.42013556,132.201334 L116.67627,132.17612 C120.537414,132.17612 123.827545,129.541716 124.675507,125.769637 L125.848755,120.555293 L125.951477,120.555293 C129.285919,120.555293 132,117.838186 132,114.497778 L132,109.565835 C132,106.225428 129.285919,103.508321 125.951477,103.508321 L125.951477,103.508321 Z M99.214508,97.0483836 C99.214508,96.9535773 99.2920531,96.8759169 99.3867187,96.8759169 L114.611756,96.8759169 C114.706421,96.8759169 114.782959,96.9535773 114.782959,97.0483836 L114.782959,103.508321 L99.214508,103.508321 L99.214508,97.0483836 Z M120.904999,124.918398 C120.455841,126.913364 118.717621,128.305201 116.67627,128.305201 L97.3222047,128.305201 C95.2808533,128.305201 93.542633,126.913364 93.0934754,124.918398 L92.1125793,120.555293 L121.885895,120.555293 L120.904999,124.918398 Z M128.134827,114.497778 C128.134827,115.703028 127.154938,116.684374 125.951477,116.684374 L88.0469971,116.684374 C86.8435363,116.684374 85.8636475,115.703028 85.8636475,114.497778 L85.8636475,109.565835 C85.8636475,108.359577 86.8435363,107.37924 88.0469971,107.37924 L125.951477,107.37924 C127.155945,107.37924 128.134827,108.359577 128.134827,109.565835 L128.134827,114.497778 Z" id="Shape"></path>
            </g>
            <path d="M103.52834,111.145476 C100.386743,107.994245 95.2970062,107.983058 92.1417576,111.120402 L92.1450263,111.118859 L81.519472,121.77611 L25.9572944,177.515188 C25.9411432,177.529847 25.9363363,177.55087 25.9217233,177.565336 C25.7940521,177.698614 25.6904154,177.853109 25.6150432,178.021877 L25.6021607,178.049458 L18.7675193,194.047486 C18.5537084,194.547617 18.6048538,195.122007 18.9034584,195.576426 C19.202063,196.030845 19.7081333,196.304348 20.2507361,196.304348 C20.4693538,196.304348 20.6858566,196.260176 20.8865927,196.173189 L36.833192,189.317167 L36.8606875,189.304244 C37.0293135,189.229407 37.1833266,189.125254 37.3158047,188.996604 C37.3304177,188.981946 37.3513757,188.977124 37.3657964,188.960922 L92.92932,133.226859 L103.553336,122.568065 C106.680897,119.402753 106.669745,114.296901 103.52834,111.145476 Z M23.0377292,191.288797 L27.3944171,181.091169 L33.2033343,186.918385 L23.0377292,191.288797 Z M36.0456911,185.712015 L29.1960127,178.840737 L82.4943698,125.376047 L89.3425095,132.245781 L36.0456911,185.712015 Z M91.2878997,130.172893 L84.5607267,123.424528 L87.1505135,120.825067 L93.879198,127.574948 L91.2878997,130.172893 Z M100.758066,120.728004 L100.750069,120.726476 L96.2287451,125.262586 L89.4556134,118.452785 L93.9769373,113.924698 C95.188336,112.709337 96.9538325,112.234808 98.6085095,112.679536 C100.263186,113.124455 101.5557,114.421005 101.999169,116.081285 C102.442447,117.741373 101.969465,119.512644 100.758066,120.728004 Z" id="Shape" transform="translate(62.264331, 152.539526) rotate(45.000000) translate(-62.264331, -152.539526) "></path>
        </g>
    </g>
</svg>