<?xml version="1.0" encoding="UTF-8"?>
<svg width="144px" height="181px" viewBox="0 0 144 181" version="1.1" xmlns="http://www.w3.org/2000/svg" xmlns:xlink="http://www.w3.org/1999/xlink">
    <!-- Generator: Sketch 55.1 (78136) - https://sketchapp.com -->
    <title>UI onboarding enti 8 (1)</title>
    <desc>Created with Sketch.</desc>
    <g id="UI-onboarding-enti-8-(1)" stroke="none" stroke-width="1" fill="none" fill-rule="evenodd">
        <g id="resume" transform="translate(1.000000, 18.610417)" fill="#3F556D" fill-rule="nonzero">
            <path d="M134.177419,4.93797043 L113.291039,4.93797043 C112.349381,2.29732982 109.847546,0.389583333 106.887097,0.389583333 L75.0483871,0.389583333 C72.087938,0.389583333 69.5861028,2.29732982 68.6444445,4.93797043 L47.7580645,4.93797043 C43.9969836,4.93797043 40.9354839,7.99947017 40.9354839,11.7605511 L40.9354839,41.3250672 L33.1901225,41.3250672 C30.4217805,41.3250672 27.6900832,42.0501884 25.2892989,43.4238101 L13.0399683,50.4218414 L0,50.4218414 L0,91.3573253 L15.2297679,91.3573253 L24.863998,97.7801453 C27.4879818,99.5313187 30.542819,100.454099 33.6942651,100.454099 L40.9354839,100.454099 L40.9354839,134.567003 C40.9354839,138.328084 43.9969836,141.389583 47.7580645,141.389583 L134.177419,141.389583 C137.9385,141.389583 141,138.328084 141,134.567003 L141,11.7605511 C141,7.99947017 137.9385,4.93797043 134.177419,4.93797043 Z M54.5806452,59.5186156 L59.1290323,59.5186156 C64.1460277,59.5186156 68.2258065,55.4388369 68.2258065,50.4218414 C68.2258065,45.4048459 64.1460277,41.3250672 59.1290323,41.3250672 L54.5806452,41.3250672 L54.5806452,18.5831317 L68.6444445,18.5831317 C69.5861028,21.2237723 72.087938,23.1315188 75.0483871,23.1315188 L106.887097,23.1315188 C109.847546,23.1315188 112.349381,21.2237723 113.291039,18.5831317 L127.354839,18.5831317 L127.354839,127.744422 L54.5806452,127.744422 L54.5806452,59.5186156 Z M72.7741935,7.21216398 C72.7741935,5.95736006 73.7935832,4.93797043 75.0483871,4.93797043 L106.887097,4.93797043 C108.141901,4.93797043 109.16129,5.95736006 109.16129,7.21216398 L109.16129,16.3089382 C109.16129,17.5637421 108.141901,18.5831317 106.887097,18.5831317 L75.0483871,18.5831317 C73.7935832,18.5831317 72.7741935,17.5637421 72.7741935,16.3089382 L72.7741935,7.21216398 Z M45.483871,11.7605511 C45.483871,10.5057472 46.5032606,9.48635753 47.7580645,9.48635753 L68.2258065,9.48635753 L68.2258065,14.0347446 L50.0322581,14.0347446 L50.0322581,41.3250672 L45.483871,41.3250672 L45.483871,11.7605511 Z M33.6942651,95.9057124 C31.4433909,95.9057124 29.2624748,95.2461075 27.3880418,93.9957451 L16.6089418,86.8089382 L4.5483871,86.8089382 L4.5483871,54.9702285 L14.2503543,54.9702285 L27.5468357,47.3725566 C29.2624748,46.3920327 31.2135285,45.8734543 33.1901225,45.8734543 L59.1290323,45.8734543 C61.63753,45.8734543 63.6774194,47.9133437 63.6774194,50.4218414 C63.6774194,52.9303391 61.63753,54.9702285 59.1290323,54.9702285 L31.8387097,54.9702285 L31.8387097,57.244422 C31.8387097,63.5140007 26.7373206,68.6153898 20.4677419,68.6153898 L20.4677419,73.1637769 C28.4751686,73.1637769 35.1178568,67.2240009 36.2260822,59.5186156 L40.9354839,59.5186156 L40.9354839,95.9057124 L33.6942651,95.9057124 Z M136.451613,134.567003 C136.451613,135.821807 135.432223,136.841196 134.177419,136.841196 L47.7580645,136.841196 C46.5032606,136.841196 45.483871,135.821807 45.483871,134.567003 L45.483871,59.5186156 L50.0322581,59.5186156 L50.0322581,132.292809 L131.903226,132.292809 L131.903226,14.0347446 L113.709677,14.0347446 L113.709677,9.48635753 L134.177419,9.48635753 C135.432223,9.48635753 136.451613,10.5057472 136.451613,11.7605511 L136.451613,134.567003 Z" id="Shape"></path>
            <polygon id="Path" points="76 9.38958333 81 9.38958333 81 14.3895833 76 14.3895833"></polygon>
            <polygon id="Path" points="100 9.38958333 105 9.38958333 105 14.3895833 100 14.3895833"></polygon>
            <path d="M107.756925,106.535173 L100.08647,104.32631 L100.084251,103.163692 C104.204679,100.263302 106.909091,95.4550539 106.909091,90.0145833 L106.909091,85.43125 C106.909091,76.5879679 99.7701972,69.3895833 91,69.3895833 C82.2298028,69.3895833 75.0909091,76.5879679 75.0909091,85.43125 L75.0909091,90.0145833 C75.0909091,95.4505777 77.793102,100.256588 81.9090909,103.159216 L81.9090909,104.328548 L74.2408557,106.535173 C69.3891159,107.935014 66,112.465755 66,117.555985 L66,124.389583 L116,124.389583 L116,117.555985 C116,112.465755 112.610884,107.935014 107.756925,106.535173 L107.756925,106.535173 Z M79.6363636,90.0145833 L79.6363636,85.43125 C79.6363636,79.1135008 84.7344636,73.9729167 91,73.9729167 C97.2655364,73.9729167 102.363636,79.1135008 102.363636,85.43125 L102.363636,90.0145833 C102.363636,96.3323325 97.2655364,101.472917 91,101.472917 C84.7344636,101.472917 79.6363636,96.3323325 79.6363636,90.0145833 Z M95.465554,105.400529 L91,111.402726 L86.534446,105.400529 C87.9526813,105.820146 89.4497071,106.05625 91,106.05625 C92.5502929,106.05625 94.0473188,105.820146 95.465554,105.400529 Z M111.454545,119.80625 L70.5454545,119.80625 L70.5454545,117.555985 C70.5454545,114.503414 72.5795898,111.783179 75.4904119,110.943945 L83.3018023,108.693681 L91,119.043107 L98.6981977,108.693681 L106.509588,110.943945 C109.42041,111.783179 111.454545,114.503414 111.454545,117.555985 L111.454545,119.80625 Z" id="Shape"></path>
            <polygon id="Path" points="60 28.3895833 65 28.3895833 65 33.3895833 60 33.3895833"></polygon>
            <polygon id="Path" points="68 28.3895833 123 28.3895833 123 33.3895833 68 33.3895833"></polygon>
            <polygon id="Path" points="73 37.3895833 123 37.3895833 123 42.3895833 73 42.3895833"></polygon>
            <polygon id="Path" points="73 46.3895833 123 46.3895833 123 51.3895833 73 51.3895833"></polygon>
            <polygon id="Path" points="118 55.3895833 123 55.3895833 123 60.3895833 118 60.3895833"></polygon>
            <polygon id="Path" points="74 55.3895833 115 55.3895833 115 60.3895833 74 60.3895833"></polygon>
        </g>
    </g>
</svg>