<?xml version="1.0" encoding="UTF-8"?>
<svg width="144px" height="240px" viewBox="0 0 144 240" version="1.1" xmlns="http://www.w3.org/2000/svg" xmlns:xlink="http://www.w3.org/1999/xlink">
    <!-- Generator: Sketch 55.1 (78136) - https://sketchapp.com -->
    <title>UI onboarding enti 6</title>
    <desc>Created with Sketch.</desc>
    <g id="UI-onboarding-enti-6" stroke="none" stroke-width="1" fill="none" fill-rule="evenodd">
        <g id="Group-2" transform="translate(6.000000, 11.000000)" fill="#3F556D">
            <g id="loupe" transform="translate(41.000000, 119.000000)" fill-rule="nonzero">
                <path d="M57,34 C55.896,34 55,34.896 55,36 C55,37.104 55.896,38 57,38 C58.104,38 59,37.104 59,36 C59,34.896 58.104,34 57,34 Z" id="Path"></path>
                <path d="M90.8713535,80.5973965 L66.6259629,56.3520059 C70.5757383,50.4025488 72.65625,43.5129199 72.65625,36.328125 C72.65625,16.2967969 56.3594531,0 36.328125,0 C16.2967969,0 0,16.2967969 0,36.328125 C0,56.3594531 16.2967969,72.65625 36.328125,72.65625 C43.5131016,72.65625 50.4027305,70.5755566 56.3520059,66.6261445 L63.0536367,73.3277754 C63.0545449,73.3286836 63.0554531,73.3295918 63.056543,73.3306816 L80.5972148,90.8713535 C81.9700547,92.2440117 83.7942715,93 85.734375,93 C87.6744785,93 89.4986953,92.2440117 90.8708086,90.8718984 C92.2438301,89.4999668 93,87.6755684 93,85.734375 C93,83.7931816 92.2438301,81.9687832 90.8713535,80.5973965 Z M55.49775,62.7980684 C55.49775,62.79825 55.4975684,62.79825 55.4973867,62.7984316 C49.8906855,66.8708145 43.2622559,69.0234375 36.328125,69.0234375 C18.2999297,69.0234375 3.6328125,54.3563203 3.6328125,36.328125 C3.6328125,18.2999297 18.2999297,3.6328125 36.328125,3.6328125 C54.3563203,3.6328125 69.0234375,18.2999297 69.0234375,36.328125 C69.0234375,43.2622559 66.8708145,49.8906855 62.79825,55.4975684 C60.7607871,58.3044609 58.3046426,60.7607871 55.49775,62.7980684 Z M59.3085703,64.4448223 C61.1885508,62.9068711 62.9070527,61.1883691 64.4448223,59.3085703 L69.5981484,64.4618965 C68.0309531,66.311543 66.311543,68.0311348 64.4618965,69.5981484 L59.3085703,64.4448223 Z M88.3025918,88.3025918 C87.6159902,88.9891934 86.7039727,89.3671875 85.734375,89.3671875 C84.7647773,89.3671875 83.8527598,88.9891934 83.1661582,88.3025918 L67.0373789,72.1738125 C68.8768535,70.5951738 70.5951738,68.8770352 72.1736309,67.0375605 L88.3029551,83.1668848 C88.9891934,83.8523965 89.3671875,84.7640508 89.3671875,85.734375 C89.3671875,86.7046992 88.9891934,87.6163535 88.3025918,88.3025918 Z" id="Shape"></path>
                <path d="M36,8 C20.0092187,8 7,20.7849219 7,36.5 C7,52.2150781 20.0092187,65 36,65 C51.9907812,65 65,52.2150781 65,36.5 C65,20.7849219 51.9907812,8 36,8 Z M36,61.4375 C22.008225,61.4375 10.625,50.2505375 10.625,36.5 C10.625,22.7494625 22.008225,11.5625 36,11.5625 C49.991775,11.5625 61.375,22.7494625 61.375,36.5 C61.375,50.2505375 49.991775,61.4375 36,61.4375 Z" id="Shape"></path>
                <path d="M56.8748089,28.6016677 C55.2611197,24.6464489 52.4514526,21.2647828 48.7492061,18.8225075 C44.9588822,16.3218182 40.5066665,15 35.8739859,15 C34.8391709,15 34,15.7902673 34,16.7647773 C34,17.7392873 34.8391709,18.5295545 35.8739859,18.5295545 C43.5758806,18.5295545 50.6093245,23.0858564 53.3762647,29.8677189 C53.6626097,30.5693944 54.372663,31 55.1260053,31 C55.3493844,31 55.5766989,30.9620573 55.7976418,30.8821129 C56.7636816,30.5325105 57.2460455,29.5115869 56.8748089,28.6016677 Z" id="Path"></path>
            </g>
            <g id="government">
                <path d="M49.3333333,38.5154754 L42.6666667,38.5154754 C41.7461921,38.5154754 41,39.2616675 41,40.1821421 L41,46.8488088 C41,47.7692834 41.7461921,48.5154754 42.6666667,48.5154754 L49.3333333,48.5154754 C50.2538079,48.5154754 51,47.7692834 51,46.8488088 L51,40.1821421 C51,39.2616675 50.2538079,38.5154754 49.3333333,38.5154754 Z M47.6666667,45.1821421 L44.3333333,45.1821421 L44.3333333,41.8488088 L47.6666667,41.8488088 L47.6666667,45.1821421 Z" id="Shape" fill-rule="nonzero"></path>
                <path d="M63.3333333,41.8488088 C64.2538079,41.8488088 65,41.1026167 65,40.1821421 C65,39.2616675 64.2538079,38.5154754 63.3333333,38.5154754 L56.6666667,38.5154754 C55.7461921,38.5154754 55,39.2616675 55,40.1821421 L55,46.8488088 C55,47.7692834 55.7461921,48.5154754 56.6666667,48.5154754 L63.3333333,48.5154754 C64.2538079,48.5154754 65,47.7692834 65,46.8488088 C65,45.9283342 64.2538079,45.1821421 63.3333333,45.1821421 L58.3333333,45.1821421 L58.3333333,41.8488088 L63.3333333,41.8488088 Z" id="Path" fill-rule="nonzero"></path>
                <path d="M35.3333333,67.5154754 L28.6666667,67.5154754 C27.7461921,67.5154754 27,68.3114137 27,69.2932532 L27,97.7376977 C27,98.7195372 27.7461921,99.5154754 28.6666667,99.5154754 C29.5871412,99.5154754 30.3333333,98.7195372 30.3333333,97.7376977 L30.3333333,71.071031 L33.6666667,71.071031 L33.6666667,97.7376977 C33.6666667,98.7195372 34.4128588,99.5154754 35.3333333,99.5154754 C36.2538079,99.5154754 37,98.7195372 37,97.7376977 L37,69.2932532 C37,68.3114137 36.2538079,67.5154754 35.3333333,67.5154754 Z" id="Path" fill-rule="nonzero"></path>
                <path d="M49.3333333,67.5154754 L42.6666667,67.5154754 C41.7461921,67.5154754 41,68.3114137 41,69.2932532 L41,97.7376977 C41,98.7195372 41.7461921,99.5154754 42.6666667,99.5154754 C43.5871412,99.5154754 44.3333333,98.7195372 44.3333333,97.7376977 L44.3333333,71.071031 L47.6666667,71.071031 L47.6666667,97.7376977 C47.6666667,98.7195372 48.4128588,99.5154754 49.3333333,99.5154754 C50.2538079,99.5154754 51,98.7195372 51,97.7376977 L51,69.2932532 C51,68.3114137 50.2538079,67.5154754 49.3333333,67.5154754 Z" id="Path" fill-rule="nonzero"></path>
                <path d="M63.3333333,67.5154754 L56.6666667,67.5154754 C55.7461921,67.5154754 55,68.3114137 55,69.2932532 L55,97.7376977 C55,98.7195372 55.7461921,99.5154754 56.6666667,99.5154754 C57.5871412,99.5154754 58.3333333,98.7195372 58.3333333,97.7376977 L58.3333333,71.071031 L61.6666667,71.071031 L61.6666667,97.7376977 C61.6666667,98.7195372 62.4128588,99.5154754 63.3333333,99.5154754 C64.2538079,99.5154754 65,98.7195372 65,97.7376977 L65,69.2932532 C65,68.3114137 64.2538079,67.5154754 63.3333333,67.5154754 Z" id="Path" fill-rule="nonzero"></path>
                <path d="M77.3333333,67.5154754 L70.6666667,67.5154754 C69.7461921,67.5154754 69,68.3114137 69,69.2932532 L69,97.7376977 C69,98.7195372 69.7461921,99.5154754 70.6666667,99.5154754 C71.5871412,99.5154754 72.3333333,98.7195372 72.3333333,97.7376977 L72.3333333,71.071031 L75.6666667,71.071031 L75.6666667,97.7376977 C75.6666667,98.7195372 76.4128588,99.5154754 77.3333333,99.5154754 C78.2538079,99.5154754 79,98.7195372 79,97.7376977 L79,69.2932532 C79,68.3114137 78.2538079,67.5154754 77.3333333,67.5154754 Z" id="Path" fill-rule="nonzero"></path>
                <rect id="Rectangle" x="29" y="107" width="41" height="4" rx="2"></rect>
                <rect id="Rectangle-Copy" x="7" y="115" width="59" height="4" rx="2"></rect>
                <rect id="Rectangle-Copy-2" x="12" y="123" width="36" height="4" rx="2"></rect>
                <rect id="Rectangle-Copy-3" x="6" y="131" width="34" height="4" rx="2"></rect>
                <rect id="Rectangle-Copy-4" x="15" y="140" width="32" height="4" rx="2"></rect>
                <rect id="Rectangle-Copy-6" x="11" y="149" width="27" height="4" rx="2"></rect>
                <rect id="Rectangle-Copy-8" x="10" y="158" width="32" height="4" rx="2"></rect>
                <rect id="Rectangle-Copy-5" x="61" y="140" width="15" height="4" rx="2"></rect>
                <rect id="Rectangle-Copy-7" x="56" y="149" width="24" height="4" rx="2"></rect>
                <rect id="Rectangle-Copy-9" x="52" y="158" width="21" height="4" rx="2"></rect>
                <path d="M93.5,85.5154754 C92.6715729,85.5154754 92,86.2989771 92,87.2654754 L92,97.7654754 C92,98.7319737 92.6715729,99.5154754 93.5,99.5154754 C94.3284271,99.5154754 95,98.7319737 95,97.7654754 L95,87.2654754 C95,86.2989771 94.3284271,85.5154754 93.5,85.5154754 Z" id="Path" fill-rule="nonzero"></path>
                <path d="M12.5,85.5154754 C11.6715729,85.5154754 11,86.2989771 11,87.2654754 L11,97.7654754 C11,98.7319737 11.6715729,99.5154754 12.5,99.5154754 C13.3284271,99.5154754 14,98.7319737 14,97.7654754 L14,87.2654754 C14,86.2989771 13.3284271,85.5154754 12.5,85.5154754 Z" id="Path" fill-rule="nonzero"></path>
                <path d="M104.233333,71.1821421 L86.5666667,71.1821421 L86.5666667,62.3488088 C86.5666667,61.3731057 85.7757031,60.5821421 84.8,60.5821421 L77.7333333,60.5821421 L77.7333333,55.2821421 C77.7333333,54.306439 76.9423697,53.5154754 75.9666667,53.5154754 L72.4333333,53.5154754 L72.4333333,35.8488088 L74.2,35.8488088 C75.1757031,35.8488088 75.9666667,35.0578452 75.9666667,34.0821421 C75.9666667,33.106439 75.1757031,32.3154754 74.2,32.3154754 L40.6333333,32.3154754 L40.6333333,30.5488088 C40.6594041,24.3415228 45.2829665,19.1153404 51.440778,18.3327573 C57.5985895,17.5501741 63.3824274,21.4537021 64.9603333,27.4571421 C65.1181256,28.0693762 65.5905547,28.5509227 66.1996612,28.7203877 C66.8087677,28.8898526 67.4620137,28.7214902 67.9133279,28.278721 C68.3646421,27.8359518 68.545459,27.1860429 68.3876667,26.5738088 C67.063712,21.4562795 63.2830522,17.3313214 58.3,15.5674754 L58.3,9.34880877 C58.3,8.37310571 57.5090364,7.5821421 56.5333333,7.5821421 L54.7666667,7.5821421 L54.7666667,2.2821421 C54.7666667,1.30643904 53.9757031,0.515475434 53,0.515475434 C52.0242969,0.515475434 51.2333333,1.30643904 51.2333333,2.2821421 L51.2333333,7.5821421 L49.4666667,7.5821421 C48.4909636,7.5821421 47.7,8.37310571 47.7,9.34880877 L47.7,15.5851421 C41.3565428,17.827882 37.1114275,23.8205697 37.1,30.5488088 L37.1,32.3154754 L31.8,32.3154754 C30.8242969,32.3154754 30.0333333,33.106439 30.0333333,34.0821421 C30.0333333,35.0578452 30.8242969,35.8488088 31.8,35.8488088 L33.5666667,35.8488088 L33.5666667,53.5154754 L30.0333333,53.5154754 C29.0576303,53.5154754 28.2666667,54.306439 28.2666667,55.2821421 L28.2666667,60.5821421 L21.2,60.5821421 C20.2242969,60.5821421 19.4333333,61.3731057 19.4333333,62.3488088 L19.4333333,71.1821421 L1.76666667,71.1821421 C0.790963609,71.1821421 0,71.9731057 0,72.9488088 L0,80.0154754 C0,80.9911785 0.790963609,81.7821421 1.76666667,81.7821421 L3.53333333,81.7821421 L3.53333333,104.748809 C3.53333333,105.724512 4.32429694,106.515475 5.3,106.515475 C6.27570306,106.515475 7.06666667,105.724512 7.06666667,104.748809 L7.06666667,81.7821421 L19.4333333,81.7821421 L19.4333333,104.748809 C19.4333333,105.724512 20.2242969,106.515475 21.2,106.515475 C22.1757031,106.515475 22.9666667,105.724512 22.9666667,104.748809 L22.9666667,64.1154754 L83.0333333,64.1154754 L83.0333333,104.748809 C83.0333333,105.724512 83.8242969,106.515475 84.8,106.515475 C85.7757031,106.515475 86.5666667,105.724512 86.5666667,104.748809 L86.5666667,81.7821421 L98.9333333,81.7821421 L98.9333333,104.748809 C98.9333333,105.724512 99.7242969,106.515475 100.7,106.515475 C101.675703,106.515475 102.466667,105.724512 102.466667,104.748809 L102.466667,81.7821421 L104.233333,81.7821421 C105.209036,81.7821421 106,80.9911785 106,80.0154754 L106,72.9488088 C106,71.9731057 105.209036,71.1821421 104.233333,71.1821421 L104.233333,71.1821421 Z M51.2333333,11.1154754 L54.7666667,11.1154754 L54.7666667,14.7548088 C54.1836667,14.7548088 53.6006667,14.6488088 53,14.6488088 C52.4095089,14.6483655 51.8195352,14.683764 51.2333333,14.7548088 L51.2333333,11.1154754 Z M3.53333333,78.2488088 L3.53333333,74.7154754 L19.4333333,74.7154754 L19.4333333,78.2488088 L3.53333333,78.2488088 Z M37.1,35.8488088 L68.9,35.8488088 L68.9,53.5154754 L37.1,53.5154754 L37.1,35.8488088 Z M31.8,60.5821421 L31.8,57.0488088 L74.2,57.0488088 L74.2,60.5821421 L31.8,60.5821421 Z M102.466667,78.2488088 L86.5666667,78.2488088 L86.5666667,74.7154754 L102.466667,74.7154754 L102.466667,78.2488088 Z" id="Shape" fill-rule="nonzero"></path>
            </g>
        </g>
    </g>
</svg>